<svg width="282" height="55" viewBox="0 0 282 55" fill="none" xmlns="http://www.w3.org/2000/svg">
<path d="M0.716995 50V0.999997H5.617V50H0.716995ZM15.3979 50V0.999997H20.2979V50H15.3979ZM30.0787 50V0.999997H34.9787V50H30.0787ZM44.7596 50V0.999997H49.6596V50H44.7596ZM79.9961 54.4775L75.1768 49.5898C73.4678 50.319 71.7132 50.6836 69.9131 50.6836C67.4294 50.6836 65.1507 50.057 63.0772 48.8037C60.9808 47.5505 59.2946 45.8529 58.0186 43.7109C56.7653 41.5462 56.1387 39.1878 56.1387 36.6357L56.207 14.4531C56.207 11.9694 56.8223 9.66797 58.0527 7.54883C59.2604 5.42969 60.901 3.7321 62.9746 2.45605C65.0482 1.15723 67.361 0.507812 69.9131 0.507812C72.3968 0.507812 74.6755 1.12305 76.749 2.35352C78.8226 3.60677 80.4746 5.28158 81.7051 7.37793C82.9583 9.47428 83.585 11.8327 83.585 14.4531L83.6533 36.6357C83.6533 37.9801 83.4596 39.2904 83.0723 40.5664C82.7077 41.8197 82.2178 42.9818 81.6025 44.0527L85.9434 48.4619C86.1712 48.6442 86.194 48.8037 86.0117 48.9404L80.5088 54.4775C80.3493 54.6143 80.1784 54.6143 79.9961 54.4775ZM69.9131 42.2412C71.5081 42.2412 72.7842 41.6488 73.7412 40.4639C74.6982 39.2562 75.1768 37.9801 75.1768 36.6357L75.1084 14.4531C75.1084 12.9492 74.6185 11.6504 73.6387 10.5566C72.6589 9.46289 71.417 8.91602 69.9131 8.91602C68.3408 8.91602 67.0762 9.47428 66.1191 10.5908C65.1621 11.7074 64.6836 12.9948 64.6836 14.4531V36.6357C64.6836 38.3219 65.2305 39.6777 66.3242 40.7031C67.418 41.7285 68.6143 42.2412 69.9131 42.2412ZM102.367 50H94.4719C94.2668 50 94.1643 49.8861 94.1643 49.6582V9.73633H85.0725C84.8446 9.73633 84.7307 9.6224 84.7307 9.39453L84.799 1.56738C84.799 1.38509 84.8902 1.29395 85.0725 1.29395H111.664C111.915 1.29395 112.04 1.38509 112.04 1.56738V9.39453C112.04 9.6224 111.949 9.73633 111.767 9.73633H102.572L102.641 49.6582C102.641 49.8861 102.55 50 102.367 50ZM108.162 49.6582L116.843 1.56738C116.889 1.38509 117.003 1.29395 117.185 1.29395H127.336C127.519 1.29395 127.633 1.38509 127.678 1.56738L136.018 49.6582C136.041 49.8861 135.95 50 135.745 50H127.986C127.758 50 127.633 49.8861 127.61 49.6582L126.858 44.5312H117.322L116.57 49.6582C116.547 49.8861 116.433 50 116.228 50H108.435C108.253 50 108.162 49.8861 108.162 49.6582ZM122.585 17.3926L122.175 14.7949L121.868 17.3926L118.723 37.0459H125.456L122.585 17.3926ZM147.315 50H140.308C139.944 50 139.761 49.8405 139.761 49.5215L139.693 1.84082C139.693 1.47624 139.875 1.29395 140.24 1.29395H146.563L158.389 28.877L158.047 1.84082C158.047 1.47624 158.253 1.29395 158.663 1.29395H165.601C165.875 1.29395 166.011 1.47624 166.011 1.84082L166.08 49.5898C166.08 49.8633 165.966 50 165.738 50H159.586L147.452 24.2285L147.964 49.4531C147.964 49.8177 147.748 50 147.315 50ZM184.349 50.6836C181.82 50.6836 179.507 50.0456 177.411 48.7695C175.337 47.4935 173.685 45.7845 172.455 43.6426C171.247 41.4779 170.643 39.0739 170.643 36.4307L170.712 14.5898C170.712 11.9922 171.304 9.64518 172.489 7.54883C173.674 5.42969 175.303 3.7321 177.377 2.45605C179.473 1.15723 181.797 0.507812 184.349 0.507812C186.947 0.507812 189.26 1.13444 191.288 2.3877C193.339 3.64095 194.968 5.33854 196.176 7.48047C197.406 9.59961 198.021 11.9694 198.021 14.5898V17.8027C198.021 17.985 197.93 18.0762 197.748 18.0762H189.887C189.704 18.0762 189.613 17.985 189.613 17.8027V14.5898C189.613 13.0404 189.112 11.7074 188.109 10.5908C187.107 9.47428 185.853 8.91602 184.349 8.91602C182.686 8.91602 181.41 9.48568 180.521 10.625C179.633 11.7643 179.188 13.0859 179.188 14.5898V36.4307C179.188 38.1396 179.69 39.541 180.692 40.6348C181.695 41.7057 182.914 42.2412 184.349 42.2412C185.853 42.2412 187.107 41.6488 188.109 40.4639C189.112 39.2562 189.613 37.9118 189.613 36.4307V33.1836C189.613 33.0013 189.704 32.9102 189.887 32.9102H197.816C197.998 32.9102 198.09 33.0013 198.09 33.1836V36.4307C198.09 39.0511 197.474 41.4437 196.244 43.6084C194.991 45.7503 193.339 47.4707 191.288 48.7695C189.237 50.0456 186.924 50.6836 184.349 50.6836ZM217.077 50H209.045C208.885 50 208.806 49.9089 208.806 49.7266L208.874 29.834L199.509 1.56738C199.463 1.38509 199.532 1.29395 199.714 1.29395H207.507C207.735 1.29395 207.871 1.38509 207.917 1.56738L213.078 20.4004L218.342 1.56738C218.387 1.38509 218.501 1.29395 218.684 1.29395H226.545C226.727 1.29395 226.796 1.38509 226.75 1.56738L217.282 29.5605L217.351 49.7266C217.351 49.9089 217.259 50 217.077 50ZM232.36 50V0.999997H237.26V50H232.36ZM247.04 50V0.999997H251.94V50H247.04ZM261.721 50V0.999997H266.621V50H261.721ZM276.402 50V0.999997H281.302V50H276.402Z" fill="white"/>
</svg>
