<svg width="79" height="79" viewBox="0 0 79 79" fill="none" xmlns="http://www.w3.org/2000/svg">
<path fill-rule="evenodd" clip-rule="evenodd" d="M13.1667 9.87492C13.1667 9.00191 13.5135 8.16467 14.1309 7.54736C14.7482 6.93005 15.5854 6.58325 16.4584 6.58325H62.5417C63.4148 6.58325 64.252 6.93005 64.8693 7.54736C65.4866 8.16467 65.8334 9.00191 65.8334 9.87492V69.1249C65.8335 69.7542 65.6531 70.3702 65.3138 70.9002C64.9745 71.4301 64.4904 71.8516 63.9189 72.1149C63.3473 72.3781 62.7123 72.4721 62.089 72.3855C61.4658 72.299 60.8804 72.0356 60.4022 71.6266L57.0019 68.7135C56.4054 68.2026 55.646 67.9218 54.8606 67.9218C54.0753 67.9218 53.3159 68.2026 52.7194 68.7135L49.3224 71.6233C48.7257 72.135 47.9656 72.4163 47.1795 72.4163C46.3935 72.4163 45.6334 72.135 45.0367 71.6233L41.643 68.7135C41.0463 68.2017 40.2862 67.9204 39.5001 67.9204C38.714 67.9204 37.9539 68.2017 37.3572 68.7135L33.9635 71.6233C33.3668 72.135 32.6067 72.4163 31.8206 72.4163C31.0346 72.4163 30.2744 72.135 29.6777 71.6233L26.2807 68.7135C25.6843 68.2026 24.9248 67.9218 24.1395 67.9218C23.3542 67.9218 22.5947 68.2026 21.9983 68.7135L18.6013 71.6233C18.1234 72.0331 17.538 72.2974 16.9145 72.3846C16.291 72.4718 15.6555 72.3784 15.0835 72.1154C14.5115 71.8524 14.0269 71.4309 13.6871 70.9009C13.3474 70.3709 13.1668 69.7545 13.1667 69.1249V9.87492ZM29.6251 19.7499C28.7521 19.7499 27.9148 20.0967 27.2975 20.714C26.6802 21.3313 26.3334 22.1686 26.3334 23.0416C26.3334 23.9146 26.6802 24.7518 27.2975 25.3691C27.9148 25.9865 28.7521 26.3333 29.6251 26.3333H49.3751C50.2481 26.3333 51.0853 25.9865 51.7026 25.3691C52.3199 24.7518 52.6667 23.9146 52.6667 23.0416C52.6667 22.1686 52.3199 21.3313 51.7026 20.714C51.0853 20.0967 50.2481 19.7499 49.3751 19.7499H29.6251ZM29.6251 32.9166C28.7521 32.9166 27.9148 33.2634 27.2975 33.8807C26.6802 34.498 26.3334 35.3352 26.3334 36.2083C26.3334 37.0813 26.6802 37.9185 27.2975 38.5358C27.9148 39.1531 28.7521 39.4999 29.6251 39.4999H49.3751C50.2481 39.4999 51.0853 39.1531 51.7026 38.5358C52.3199 37.9185 52.6667 37.0813 52.6667 36.2083C52.6667 35.3352 52.3199 34.498 51.7026 33.8807C51.0853 33.2634 50.2481 32.9166 49.3751 32.9166H29.6251ZM32.9167 49.3749C32.9167 48.5019 33.2635 47.6647 33.8809 47.0474C34.4982 46.4301 35.3354 46.0833 36.2084 46.0833H49.3751C50.2481 46.0833 51.0853 46.4301 51.7026 47.0474C52.3199 47.6647 52.6667 48.5019 52.6667 49.3749C52.6667 50.2479 52.3199 51.0852 51.7026 51.7025C51.0853 52.3198 50.2481 52.6666 49.3751 52.6666H36.2084C35.3354 52.6666 34.4982 52.3198 33.8809 51.7025C33.2635 51.0852 32.9167 50.2479 32.9167 49.3749Z" fill="white"/>
</svg>
