<svg width="20" height="22" viewBox="0 0 20 22" fill="none" xmlns="http://www.w3.org/2000/svg">
<path d="M17 18.7481H3V19.9035C3 20.2099 2.89464 20.5038 2.70711 20.7205C2.51957 20.9371 2.26522 21.0589 2 21.0589H1C0.734784 21.0589 0.48043 20.9371 0.292893 20.7205C0.105357 20.5038 0 20.2099 0 19.9035V9.5053L2.513 1.7621C2.65593 1.32156 2.91186 0.941919 3.24656 0.673935C3.58126 0.405951 3.97878 0.262393 4.386 0.262451H15.614C16.0212 0.262393 16.4187 0.405951 16.7534 0.673935C17.0881 0.941919 17.3441 1.32156 17.487 1.7621L20 9.5053V19.9035C20 20.2099 19.8946 20.5038 19.7071 20.7205C19.5196 20.9371 19.2652 21.0589 19 21.0589H18C17.7348 21.0589 17.4804 20.9371 17.2929 20.7205C17.1054 20.5038 17 20.2099 17 19.9035V18.7481ZM2.136 9.5053H17.864L15.614 2.57316H4.386L2.136 9.5053ZM4.5 15.2821C4.89782 15.2821 5.27936 15.0995 5.56066 14.7745C5.84196 14.4495 6 14.0087 6 13.549C6 13.0894 5.84196 12.6486 5.56066 12.3236C5.27936 11.9986 4.89782 11.816 4.5 11.816C4.10218 11.816 3.72064 11.9986 3.43934 12.3236C3.15804 12.6486 3 13.0894 3 13.549C3 14.0087 3.15804 14.4495 3.43934 14.7745C3.72064 15.0995 4.10218 15.2821 4.5 15.2821ZM15.5 15.2821C15.8978 15.2821 16.2794 15.0995 16.5607 14.7745C16.842 14.4495 17 14.0087 17 13.549C17 13.0894 16.842 12.6486 16.5607 12.3236C16.2794 11.9986 15.8978 11.816 15.5 11.816C15.1022 11.816 14.7206 11.9986 14.4393 12.3236C14.158 12.6486 14 13.0894 14 13.549C14 14.0087 14.158 14.4495 14.4393 14.7745C14.7206 15.0995 15.1022 15.2821 15.5 15.2821Z" fill="#11ACAA"/>
</svg>
