<svg width="63" height="63" viewBox="0 0 63 63" fill="none" xmlns="http://www.w3.org/2000/svg">
<path d="M43.3125 47.25H19.6875C18.6432 47.25 17.6417 46.8352 16.9033 46.0967C16.1648 45.3583 15.75 44.3568 15.75 43.3125V37.4062H19.6875V43.3125H43.3125V37.4062H47.25V43.3125C47.25 44.3568 46.8352 45.3583 46.0967 46.0967C45.3583 46.8352 44.3568 47.25 43.3125 47.25ZM3.9375 29.5312H59.0625V33.4688H3.9375V29.5312ZM47.25 25.5938H43.3125V19.6875H19.6875V25.5938H15.75V19.6875C15.75 18.6432 16.1648 17.6417 16.9033 16.9033C17.6417 16.1648 18.6432 15.75 19.6875 15.75H43.3125C44.3568 15.75 45.3583 16.1648 46.0967 16.9033C46.8352 17.6417 47.25 18.6432 47.25 19.6875V25.5938ZM59.0625 19.6875H55.125V7.875H43.3125V3.9375H59.0625V19.6875ZM7.875 19.6875H3.9375V3.9375H19.6875V7.875H7.875V19.6875ZM19.6875 59.0625H3.9375V43.3125H7.875V55.125H19.6875V59.0625ZM59.0625 59.0625H43.3125V55.125H55.125V43.3125H59.0625V59.0625Z" fill="black"/>
</svg>
