<svg width="19" height="27" viewBox="0 0 19 27" fill="none" xmlns="http://www.w3.org/2000/svg">
<path d="M1.407 0.796387H1.3888C1.3043 0.798451 1.22082 0.818179 1.1424 0.854617C1.02901 0.906483 0.929314 0.991675 0.85319 1.10175C0.777066 1.21183 0.727155 1.34298 0.7084 1.48221C0.686 1.63425 0 6.61129 0 8.88388C0 10.4205 0.6188 11.7905 1.582 12.6769C1.932 13.002 2.1 13.3546 2.1 13.649V14.4578C2.1 14.4869 2.0986 14.516 2.0958 14.5451C2.058 14.9657 1.8844 16.8565 1.7206 18.8008C1.5596 20.7175 1.4 22.7636 1.4 23.4414C1.4 24.2993 1.695 25.1222 2.2201 25.7289C2.7452 26.3355 3.45739 26.6764 4.2 26.6764C4.94261 26.6764 5.6548 26.3355 6.1799 25.7289C6.705 25.1222 7 24.2993 7 23.4414C7 22.762 6.8404 20.7175 6.6794 18.8008C6.55971 17.3821 6.43464 15.9641 6.3042 14.5467L6.3 14.4578V13.649C6.3 13.353 6.468 13.002 6.818 12.6769C7.31134 12.2226 7.70975 11.6456 7.98362 10.989C8.2575 10.3323 8.39982 9.6128 8.4 8.88388C8.4 6.60644 7.7098 1.60675 7.6916 1.48059C7.67101 1.32857 7.61332 1.18649 7.52528 1.07102C7.43725 0.955561 7.32253 0.87151 7.1946 0.828737C7.13588 0.808881 7.07517 0.798005 7.014 0.796387H6.986H6.9874C6.80086 0.798094 6.62247 0.884906 6.49109 1.03791C6.35971 1.19091 6.28599 1.3977 6.286 1.61322V8.08322C6.28793 8.18836 6.27192 8.29292 6.23887 8.39091C6.20583 8.4889 6.15641 8.57842 6.09342 8.65435C6.03043 8.73027 5.95512 8.79112 5.87178 8.83342C5.78844 8.87571 5.69871 8.89863 5.6077 8.90086C5.51669 8.90309 5.4262 8.88459 5.34138 8.84642C5.25656 8.80824 5.17909 8.75114 5.11337 8.67836C5.04765 8.60559 4.99499 8.51858 4.95838 8.42229C4.92177 8.32601 4.90193 8.22233 4.9 8.11719V1.60514C4.9 1.39064 4.82625 1.18493 4.69497 1.03326C4.5637 0.881594 4.38565 0.796387 4.2 0.796387C4.01435 0.796387 3.8363 0.881594 3.70503 1.03326C3.57375 1.18493 3.5 1.39064 3.5 1.60514V8.07513L3.5014 8.12689C3.49639 8.33924 3.41857 8.54059 3.28506 8.68665C3.15155 8.83271 2.97329 8.91151 2.7895 8.90572C2.6057 8.89992 2.43143 8.81002 2.30501 8.65577C2.17859 8.50152 2.11039 8.29557 2.1154 8.08322V1.61484C2.1154 1.39805 2.04096 1.19012 1.90841 1.03668C1.77586 0.883234 1.59464 0.796815 1.407 0.796387ZM10.5 8.07513C10.5 6.14469 11.1637 4.29331 12.3452 2.92828C13.5267 1.56325 15.1291 0.796387 16.8 0.796387C16.9857 0.796387 17.1637 0.881594 17.295 1.03326C17.4263 1.18493 17.5 1.39064 17.5 1.60514V12.892L17.528 13.2544C17.6371 14.7077 17.7435 16.1613 17.8472 17.6151C18.0208 20.0527 18.2 22.728 18.2 23.4414C18.2 24.2993 17.905 25.1222 17.3799 25.7289C16.8548 26.3355 16.1426 26.6764 15.4 26.6764C14.6574 26.6764 13.9452 26.3355 13.4201 25.7289C12.895 25.1222 12.6 24.2993 12.6 23.4414C12.6 22.7297 12.7792 20.0527 12.9528 17.6151C13.0396 16.3842 13.1278 15.1937 13.1936 14.3122L13.2356 13.7364H12.6C12.043 13.7364 11.5089 13.4808 11.1151 13.0257C10.7212 12.5707 10.5 11.9536 10.5 11.3101V8.07513Z" fill="#11ACAA"/>
</svg>
