<svg width="24" height="24" viewBox="0 0 24 24" fill="none" xmlns="http://www.w3.org/2000/svg">
<g clip-path="url(#clip0_1_20)">
<path d="M23.9873 12.2253C23.9873 11.2421 23.9057 10.5245 23.729 9.78046H12.239V14.2184H18.9833C18.8474 15.3213 18.1132 16.9823 16.4814 18.0984L16.4585 18.247L20.0915 20.9972L20.3431 21.0217C22.6547 18.9355 23.9873 15.8661 23.9873 12.2253" fill="#4285F4"/>
<path d="M12.239 23.9186C15.5431 23.9186 18.317 22.8556 20.3431 21.0219L16.4814 18.0986C15.448 18.8028 14.061 19.2945 12.239 19.2945C9.00276 19.2945 6.25607 17.2084 5.27695 14.325L5.13344 14.3369L1.35589 17.1937L1.30649 17.3279C3.31891 21.2345 7.45257 23.9186 12.239 23.9186Z" fill="#34A853"/>
<path d="M5.2769 14.3236C5.01855 13.5795 4.86903 12.7822 4.86903 11.9584C4.86903 11.1345 5.01855 10.3373 5.26331 9.59323L5.25646 9.43476L1.43158 6.53204L1.30643 6.59021C0.477018 8.21131 0.00109863 10.0317 0.00109863 11.9584C0.00109863 13.8851 0.477018 15.7054 1.30643 17.3265L5.2769 14.3236" fill="#FBBC05"/>
<path d="M12.239 4.62403C14.537 4.62403 16.0871 5.59402 16.9709 6.40461L20.4247 3.10928C18.3035 1.1826 15.5432 0 12.239 0C7.45263 0 3.31897 2.68406 1.30655 6.59057L5.26342 9.59359C6.25613 6.7102 9.00282 4.62403 12.239 4.62403" fill="#EB4335"/>
</g>
<defs>
<clipPath id="clip0_1_20">
<rect width="24" height="24" fill="white"/>
</clipPath>
</defs>
</svg>
