<svg width="22" height="22" viewBox="0 0 22 22" fill="none" xmlns="http://www.w3.org/2000/svg">
<path fill-rule="evenodd" clip-rule="evenodd" d="M0.637207 2.03689C0.637207 1.63174 0.798152 1.24319 1.08463 0.956705C1.37112 0.670222 1.75967 0.509277 2.16482 0.509277H11.9981C12.1987 0.509277 12.3973 0.54879 12.5827 0.62556C12.768 0.70233 12.9364 0.814853 13.0782 0.956705C13.2201 1.09856 13.3326 1.26696 13.4094 1.4523C13.4862 1.63764 13.5257 1.83628 13.5257 2.03689V6.33407H9.89912C8.98754 6.33407 8.11329 6.69619 7.46871 7.34078C6.82412 7.98536 6.46199 8.85961 6.46199 9.77119V13.3977H2.16482C1.75967 13.3977 1.37112 13.2368 1.08463 12.9503C0.798152 12.6638 0.637207 12.2753 0.637207 11.8701V2.03689ZM4.53415 5.85439H4.47915C3.62369 5.85439 2.93168 5.16239 2.93168 4.30692V4.28706C2.93168 3.88192 3.09263 3.49336 3.37911 3.20688C3.66559 2.9204 4.05415 2.75945 4.45929 2.75945H4.48068C4.684 2.75604 4.886 2.79271 5.07514 2.86737C5.26429 2.94202 5.43688 3.0532 5.58305 3.19456C5.72923 3.33591 5.84614 3.50467 5.9271 3.69121C6.00805 3.87775 6.05148 4.0784 6.05489 4.28172C6.0583 4.48503 6.02163 4.68703 5.94697 4.87618C5.87232 5.06532 5.76114 5.23791 5.61978 5.38409C5.47843 5.53027 5.30966 5.64717 5.12313 5.72813C4.93659 5.80909 4.73594 5.85251 4.53262 5.85592L4.53415 5.85439ZM9.89912 8.24358C9.49398 8.24358 9.10542 8.40453 8.81894 8.69101C8.53246 8.97749 8.37151 9.36605 8.37151 9.77119V19.6044C8.37151 20.0096 8.53246 20.3981 8.81894 20.6846C9.10542 20.9711 9.49398 21.1321 9.89912 21.1321H19.7324C20.1375 21.1321 20.5261 20.9711 20.8126 20.6846C21.099 20.3981 21.26 20.0096 21.26 19.6044V9.77119C21.26 9.36605 21.099 8.97749 20.8126 8.69101C20.5261 8.40453 20.1375 8.24358 19.7324 8.24358H9.89912ZM16.8788 13.8331C17.2839 13.8331 17.6725 13.6722 17.959 13.3857C18.2455 13.0992 18.4064 12.7107 18.4064 12.3055C18.4064 11.9004 18.2455 11.5118 17.959 11.2253C17.6725 10.9388 17.2839 10.7779 16.8788 10.7779C16.4736 10.7779 16.0851 10.9388 15.7986 11.2253C15.5121 11.5118 15.3512 11.9004 15.3512 12.3055C15.3512 12.7107 15.5121 13.0992 15.7986 13.3857C16.0851 13.6722 16.4736 13.8331 16.8788 13.8331ZM14.2818 17.0717C14.2818 17.4768 14.1209 17.8654 13.8344 18.1518C13.5479 18.4383 13.1594 18.5993 12.7542 18.5993C12.3491 18.5993 11.9605 18.4383 11.674 18.1518C11.3876 17.8654 11.2266 17.4768 11.2266 17.0717C11.2266 16.6665 11.3876 16.278 11.674 15.9915C11.9605 15.705 12.3491 15.544 12.7542 15.544C13.1594 15.544 13.5479 15.705 13.8344 15.9915C14.1209 16.278 14.2818 16.6665 14.2818 17.0717Z" fill="#11ACAA"/>
</svg>
