<svg width="161" height="32" viewBox="0 0 161 32" fill="none" xmlns="http://www.w3.org/2000/svg">
<path d="M0.33828 29V0.999998H3.13828V29H0.33828ZM8.72734 29V0.999998H11.5273V29H8.72734ZM17.1164 29V0.999998H19.9164V29H17.1164ZM25.5055 29V0.999998H28.3055V29H25.5055ZM45.6406 31.5586L42.8867 28.7656C41.9102 29.1823 40.9076 29.3906 39.8789 29.3906C38.4596 29.3906 37.1576 29.0326 35.9727 28.3164C34.7747 27.6003 33.8112 26.6302 33.082 25.4062C32.3659 24.1693 32.0078 22.8216 32.0078 21.3633L32.0469 8.6875C32.0469 7.26823 32.3984 5.95312 33.1016 4.74219C33.7917 3.53125 34.7292 2.5612 35.9141 1.83203C37.099 1.08984 38.4206 0.71875 39.8789 0.71875C41.2982 0.71875 42.6003 1.07031 43.7852 1.77344C44.9701 2.48958 45.9141 3.44661 46.6172 4.64453C47.3333 5.84245 47.6914 7.1901 47.6914 8.6875L47.7305 21.3633C47.7305 22.1315 47.6198 22.8802 47.3984 23.6094C47.1901 24.3255 46.9102 24.9896 46.5586 25.6016L49.0391 28.1211C49.1693 28.2253 49.1823 28.3164 49.0781 28.3945L45.9336 31.5586C45.8424 31.6367 45.7448 31.6367 45.6406 31.5586ZM39.8789 24.5664C40.7904 24.5664 41.5195 24.2279 42.0664 23.5508C42.6133 22.8607 42.8867 22.1315 42.8867 21.3633L42.8477 8.6875C42.8477 7.82812 42.5677 7.08594 42.0078 6.46094C41.4479 5.83594 40.7383 5.52344 39.8789 5.52344C38.9805 5.52344 38.2578 5.84245 37.7109 6.48047C37.1641 7.11849 36.8906 7.85417 36.8906 8.6875V21.3633C36.8906 22.3268 37.2031 23.1016 37.8281 23.6875C38.4531 24.2734 39.1367 24.5664 39.8789 24.5664ZM58.4242 29H53.9125C53.7953 29 53.7367 28.9349 53.7367 28.8047V5.99219H48.5414C48.4112 5.99219 48.3461 5.92708 48.3461 5.79688L48.3852 1.32422C48.3852 1.22005 48.4372 1.16797 48.5414 1.16797H63.7367C63.8799 1.16797 63.9516 1.22005 63.9516 1.32422V5.79688C63.9516 5.92708 63.8995 5.99219 63.7953 5.99219H58.5414L58.5805 28.8047C58.5805 28.9349 58.5284 29 58.4242 29ZM61.7352 28.8047L66.6961 1.32422C66.7221 1.22005 66.7872 1.16797 66.8914 1.16797H72.6922C72.7964 1.16797 72.8615 1.22005 72.8875 1.32422L77.6531 28.8047C77.6661 28.9349 77.6141 29 77.4969 29H73.0633C72.9331 29 72.8615 28.9349 72.8484 28.8047L72.4187 25.875H66.9695L66.5398 28.8047C66.5268 28.9349 66.4617 29 66.3445 29H61.8914C61.7872 29 61.7352 28.9349 61.7352 28.8047ZM69.9773 10.3672L69.743 8.88281L69.5672 10.3672L67.7703 21.5977H71.618L69.9773 10.3672ZM84.1086 29H80.1047C79.8963 29 79.7922 28.9089 79.7922 28.7266L79.7531 1.48047C79.7531 1.27214 79.8573 1.16797 80.0656 1.16797H83.6789L90.4367 16.9297L90.2414 1.48047C90.2414 1.27214 90.3586 1.16797 90.593 1.16797H94.5578C94.7141 1.16797 94.7922 1.27214 94.7922 1.48047L94.8312 28.7656C94.8312 28.9219 94.7661 29 94.6359 29H91.1203L84.1867 14.2734L84.4797 28.6875C84.4797 28.8958 84.356 29 84.1086 29ZM105.271 29.3906C103.826 29.3906 102.504 29.026 101.306 28.2969C100.121 27.5677 99.1773 26.5911 98.4742 25.3672C97.7841 24.1302 97.4391 22.7565 97.4391 21.2461L97.4781 8.76562C97.4781 7.28125 97.8167 5.9401 98.4938 4.74219C99.1708 3.53125 100.102 2.5612 101.287 1.83203C102.485 1.08984 103.813 0.71875 105.271 0.71875C106.755 0.71875 108.077 1.07682 109.236 1.79297C110.408 2.50911 111.339 3.47917 112.029 4.70312C112.732 5.91406 113.084 7.26823 113.084 8.76562V10.6016C113.084 10.7057 113.032 10.7578 112.927 10.7578H108.435C108.331 10.7578 108.279 10.7057 108.279 10.6016V8.76562C108.279 7.88021 107.992 7.11849 107.42 6.48047C106.847 5.84245 106.13 5.52344 105.271 5.52344C104.321 5.52344 103.591 5.84896 103.084 6.5C102.576 7.15104 102.322 7.90625 102.322 8.76562V21.2461C102.322 22.2227 102.608 23.0234 103.181 23.6484C103.754 24.2604 104.451 24.5664 105.271 24.5664C106.13 24.5664 106.847 24.2279 107.42 23.5508C107.992 22.8607 108.279 22.0924 108.279 21.2461V19.3906C108.279 19.2865 108.331 19.2344 108.435 19.2344H112.966C113.071 19.2344 113.123 19.2865 113.123 19.3906V21.2461C113.123 22.7435 112.771 24.1107 112.068 25.3477C111.352 26.5716 110.408 27.5547 109.236 28.2969C108.064 29.026 106.742 29.3906 105.271 29.3906ZM123.973 29H119.383C119.292 29 119.246 28.9479 119.246 28.8438L119.285 17.4766L113.934 1.32422C113.908 1.22005 113.947 1.16797 114.051 1.16797H118.504C118.634 1.16797 118.712 1.22005 118.738 1.32422L121.688 12.0859L124.695 1.32422C124.721 1.22005 124.786 1.16797 124.891 1.16797H129.383C129.487 1.16797 129.526 1.22005 129.5 1.32422L124.09 17.3203L124.129 28.8438C124.129 28.9479 124.077 29 123.973 29ZM132.705 29V0.999998H135.505V29H132.705ZM141.095 29V0.999998H143.895V29H141.095ZM149.484 29V0.999998H152.284V29H149.484ZM157.873 29V0.999998H160.673V29H157.873Z" fill="#22C55E"/>
</svg>
