<svg width="64" height="64" viewBox="0 0 64 64" fill="none" xmlns="http://www.w3.org/2000/svg">
<path d="M34.7413 5.33325C37.7413 5.34125 39.264 5.35725 40.5787 5.39459L41.096 5.41325C41.6933 5.43459 42.2827 5.46125 42.9947 5.49325C45.832 5.62659 47.768 6.07459 49.4667 6.73325C51.2267 7.41059 52.7093 8.32792 54.192 9.80792C55.5485 11.1405 56.5978 12.7532 57.2667 14.5333C57.9253 16.2319 58.3733 18.1679 58.5067 21.0079C58.5387 21.7173 58.5653 22.3066 58.5867 22.9066L58.6027 23.4239C58.6427 24.7359 58.6587 26.2586 58.664 29.2586L58.6667 31.2479V34.7413C58.6732 36.6863 58.6527 38.6314 58.6053 40.5759L58.5893 41.0933C58.568 41.6933 58.5413 42.2826 58.5093 42.9919C58.376 45.8319 57.9227 47.7653 57.2667 49.4666C56.5978 51.2467 55.5485 52.8593 54.192 54.1919C52.8594 55.5484 51.2467 56.5977 49.4667 57.2666C47.768 57.9253 45.832 58.3733 42.9947 58.5066L41.096 58.5866L40.5787 58.6026C39.264 58.6399 37.7413 58.6586 34.7413 58.6639L32.752 58.6666H29.2613C27.3154 58.6735 25.3694 58.653 23.424 58.6053L22.9067 58.5893C22.2736 58.5653 21.6407 58.5377 21.008 58.5066C18.1707 58.3733 16.2347 57.9253 14.5333 57.2666C12.7542 56.5974 11.1425 55.5481 9.81067 54.1919C8.45319 52.8596 7.40296 51.2469 6.73333 49.4666C6.07467 47.7679 5.62667 45.8319 5.49333 42.9919L5.41333 41.0933L5.4 40.5759C5.35084 38.6314 5.32862 36.6864 5.33333 34.7413V29.2586C5.32595 27.3135 5.34551 25.3684 5.392 23.4239L5.41067 22.9066C5.432 22.3066 5.45867 21.7173 5.49067 21.0079C5.624 18.1679 6.072 16.2346 6.73067 14.5333C7.40185 12.7524 8.45393 11.1397 9.81333 9.80792C11.1444 8.45205 12.7552 7.40278 14.5333 6.73325C16.2347 6.07459 18.168 5.62659 21.008 5.49325C21.7173 5.46125 22.3093 5.43459 22.9067 5.41325L23.424 5.39725C25.3685 5.34987 27.3136 5.32943 29.2587 5.33592L34.7413 5.33325ZM32 18.6666C28.4638 18.6666 25.0724 20.0713 22.5719 22.5718C20.0714 25.0723 18.6667 28.4637 18.6667 31.9999C18.6667 35.5361 20.0714 38.9275 22.5719 41.428C25.0724 43.9285 28.4638 45.3333 32 45.3333C35.5362 45.3333 38.9276 43.9285 41.4281 41.428C43.9286 38.9275 45.3333 35.5361 45.3333 31.9999C45.3333 28.4637 43.9286 25.0723 41.4281 22.5718C38.9276 20.0713 35.5362 18.6666 32 18.6666ZM32 23.9999C33.0506 23.9997 34.0909 24.2065 35.0616 24.6084C36.0322 25.0103 36.9143 25.5994 37.6572 26.3421C38.4002 27.0849 38.9897 27.9667 39.3919 28.9372C39.7941 29.9078 40.0012 30.948 40.0013 31.9986C40.0015 33.0492 39.7948 34.0895 39.3929 35.0602C38.991 36.0308 38.4019 36.9128 37.6591 37.6558C36.9164 38.3988 36.0346 38.9882 35.064 39.3904C34.0935 39.7926 33.0532 39.9997 32.0027 39.9999C29.8809 39.9999 27.8461 39.1571 26.3458 37.6568C24.8455 36.1565 24.0027 34.1217 24.0027 31.9999C24.0027 29.8782 24.8455 27.8434 26.3458 26.3431C27.8461 24.8428 29.8809 23.9999 32.0027 23.9999M46.0027 14.6666C45.1186 14.6666 44.2708 15.0178 43.6456 15.6429C43.0205 16.268 42.6693 17.1159 42.6693 17.9999C42.6693 18.884 43.0205 19.7318 43.6456 20.3569C44.2708 20.9821 45.1186 21.3333 46.0027 21.3333C46.8867 21.3333 47.7346 20.9821 48.3597 20.3569C48.9848 19.7318 49.336 18.884 49.336 17.9999C49.336 17.1159 48.9848 16.268 48.3597 15.6429C47.7346 15.0178 46.8867 14.6666 46.0027 14.6666Z" fill="#4BCF7C"/>
</svg>
