<svg width="22" height="22" viewBox="0 0 22 22" fill="none" xmlns="http://www.w3.org/2000/svg">
<path fill-rule="evenodd" clip-rule="evenodd" d="M7.89166 0.320374C7.16757 0.320374 6.42515 0.554099 5.84008 1.03682C5.24584 1.52566 4.83491 2.25891 4.83491 3.10521V5.46232H2.54655C1.30918 5.46232 0.255127 6.43083 0.255127 7.69263V19.4308C0.255127 20.6911 1.30918 21.6611 2.54655 21.6611H19.3503C20.5877 21.6611 21.6417 20.6911 21.6417 19.4308V7.69263C21.6417 6.43235 20.5877 5.46232 19.3503 5.46232H17.0619V3.10521C17.0619 2.26044 16.651 1.52566 16.0568 1.03682C15.4758 0.568849 14.7511 0.315777 14.0052 0.320374H7.89166ZM14.0067 5.46232V3.3756H7.89014V5.46232H14.0067ZM6.93843 13.5617C6.93843 13.0347 7.36616 12.607 7.89319 12.607H9.99366V10.5065C9.99366 10.2533 10.0942 10.0104 10.2733 9.83138C10.4524 9.65233 10.6952 9.55174 10.9484 9.55174C11.2016 9.55174 11.4445 9.65233 11.6235 9.83138C11.8026 10.0104 11.9032 10.2533 11.9032 10.5065V12.607H14.0036C14.2569 12.607 14.4997 12.7076 14.6788 12.8866C14.8578 13.0657 14.9584 13.3085 14.9584 13.5617C14.9584 13.8149 14.8578 14.0578 14.6788 14.2368C14.4997 14.4159 14.2569 14.5165 14.0036 14.5165H11.9032V16.6169C11.9032 16.8702 11.8026 17.113 11.6235 17.2921C11.4445 17.4711 11.2016 17.5717 10.9484 17.5717C10.6952 17.5717 10.4524 17.4711 10.2733 17.2921C10.0942 17.113 9.99366 16.8702 9.99366 16.6169V14.5165H7.89319C7.63997 14.5165 7.39713 14.4159 7.21807 14.2368C7.03902 14.0578 6.93843 13.8149 6.93843 13.5617Z" fill="#11ACAA"/>
</svg>
