<svg width="26" height="27" viewBox="0 0 26 27" fill="none" xmlns="http://www.w3.org/2000/svg">
<path d="M6.72949 11.6514C7.21129 11.6991 7.66442 11.9115 8.00977 12.2568C8.40422 12.6513 8.62585 13.1863 8.62598 13.7441C8.62598 14.3022 8.40434 14.8378 8.00977 15.2324C7.66442 15.5778 7.21129 15.7901 6.72949 15.8379L6.52148 15.8486C5.96365 15.8485 5.42864 15.6269 5.03418 15.2324C4.6396 14.8378 4.41797 14.3022 4.41797 13.7441C4.4181 13.1863 4.63972 12.6513 5.03418 12.2568C5.42864 11.8624 5.96364 11.6408 6.52148 11.6406L6.72949 11.6514ZM13.1455 11.6514C13.6273 11.6991 14.0804 11.9115 14.4258 12.2568C14.8202 12.6513 15.0419 13.1863 15.042 13.7441L15.0312 13.9521C14.9835 14.4339 14.7711 14.8871 14.4258 15.2324C14.0804 15.5778 13.6273 15.7901 13.1455 15.8379L12.9375 15.8486C12.3797 15.8485 11.8447 15.6269 11.4502 15.2324C11.0556 14.8378 10.834 14.3022 10.834 13.7441L10.8438 13.5371C10.8915 13.0553 11.1048 12.6022 11.4502 12.2568C11.8447 11.8624 12.3797 11.6407 12.9375 11.6406L13.1455 11.6514ZM19.5615 11.6514C20.0433 11.6991 20.4965 11.9115 20.8418 12.2568C21.2362 12.6513 21.4579 13.1863 21.458 13.7441C21.458 14.3021 21.2363 14.8379 20.8418 15.2324C20.4965 15.5777 20.0433 15.7901 19.5615 15.8379L19.3535 15.8486C18.7957 15.8485 18.2607 15.6269 17.8662 15.2324C17.4716 14.8378 17.25 14.3022 17.25 13.7441C17.2501 13.1863 17.4717 12.6513 17.8662 12.2568C18.2607 11.8624 18.7957 11.6407 19.3535 11.6406L19.5615 11.6514Z" fill="#11ACAA" stroke="#11ACAA"/>
</svg>
