<svg width="400" height="389" viewBox="0 0 400 389" fill="none" xmlns="http://www.w3.org/2000/svg">
<g clip-path="url(#clip0_204_833)">
<path d="M326.723 49.5794C298.332 19.4359 259.247 1.63402 217.87 0V158.432L326.723 49.5794Z" fill="#090814"/>
<path d="M326.723 69.3064L217.87 178.159H369.995C370.049 137.671 354.56 98.7071 326.723 69.3064Z" fill="#E4E4E4"/>
<path d="M370.158 189.543C370.165 199.418 369.251 209.272 367.429 218.977C367.287 219.745 367.138 220.506 366.982 221.267C363.547 238.197 357.346 254.445 348.629 269.359C348.167 270.159 347.688 270.959 347.21 271.743V271.751C338.619 285.885 327.876 298.594 315.368 309.417C314.749 309.958 314.129 310.492 313.502 311.017C286.622 333.631 252.968 346.636 217.866 347.972V189.543H370.158Z" fill="#F0F0F0"/>
<path d="M202.48 348.113C204.585 348.113 206.679 348.057 208.765 347.978V189.54L93.5427 304.76C122.953 332.646 161.953 348.165 202.482 348.111L202.48 348.113Z" fill="#CACACA"/>
<path d="M202.695 19.5859C115.116 19.5859 44.1199 90.5818 44.1199 178.159H209.144V19.727C207.004 19.6415 204.856 19.5859 202.695 19.5859Z" fill="#22C55E"/>
<path d="M164.864 189.543L131.524 222.883L130.434 223.973L130.411 223.996L101.337 253.062L100.232 254.168L68.8222 285.578L67.7161 286.684V286.692L49.6383 304.762C33.9411 289.959 21.4394 272.101 12.9027 252.286C4.36606 232.471 -0.0249395 211.119 -1.65677e-05 189.543H164.864Z" fill="#22C55E"/>
<path d="M398.039 349.002H99.2277C99.1229 349.004 99.0187 348.986 98.9211 348.948C98.8235 348.91 98.7346 348.853 98.6596 348.78C98.5845 348.706 98.5248 348.619 98.4841 348.523C98.4433 348.426 98.4224 348.322 98.4224 348.218C98.4224 348.113 98.4433 348.009 98.4841 347.913C98.5248 347.816 98.5845 347.729 98.6596 347.656C98.7346 347.582 98.8235 347.525 98.9211 347.487C99.0187 347.449 99.1229 347.431 99.2277 347.433H398.039C398.244 347.439 398.438 347.524 398.581 347.67C398.723 347.817 398.803 348.013 398.803 348.218C398.803 348.422 398.723 348.618 398.581 348.765C398.438 348.911 398.244 348.996 398.039 349.002Z" fill="#F0F0F0"/>
<path d="M398.432 388.216V89.4073C398.429 89.3026 398.447 89.1984 398.485 89.1008C398.523 89.0032 398.581 88.9143 398.654 88.8392C398.727 88.7642 398.814 88.7045 398.911 88.6638C399.007 88.623 399.111 88.6021 399.216 88.6021C399.32 88.6021 399.424 88.623 399.521 88.6638C399.617 88.7045 399.705 88.7642 399.778 88.8392C399.851 88.9143 399.908 89.0032 399.946 89.1008C399.984 89.1984 400.003 89.3026 400 89.4073V388.216C400.003 388.32 399.984 388.425 399.946 388.522C399.908 388.62 399.851 388.709 399.778 388.784C399.705 388.859 399.617 388.918 399.521 388.959C399.424 389 399.32 389.021 399.216 389.021C399.111 389.021 399.007 389 398.911 388.959C398.814 388.918 398.727 388.859 398.654 388.784C398.581 388.709 398.523 388.62 398.485 388.522C398.447 388.425 398.429 388.32 398.432 388.216Z" fill="#F0F0F0"/>
<path d="M353.727 388.999C360.657 388.999 366.275 383.381 366.275 376.451C366.275 369.521 360.657 363.903 353.727 363.903C346.797 363.903 341.179 369.521 341.179 376.451C341.179 383.381 346.797 388.999 353.727 388.999Z" fill="#F0F0F0"/>
<path d="M48.641 35.2917C55.5712 35.2917 61.1893 29.6737 61.1893 22.7435C61.1893 15.8133 55.5712 10.1953 48.641 10.1953C41.7107 10.1953 36.0927 15.8133 36.0927 22.7435C36.0927 29.6737 41.7107 35.2917 48.641 35.2917Z" fill="#F0F0F0"/>
<path d="M67.715 286.69C41.6963 260.922 26.4927 226.196 25.2078 189.6L28.3428 189.489C29.6 225.289 44.4731 259.26 69.9261 284.467L67.715 286.69Z" fill="#3F3D56"/>
<path d="M101.369 253.093L99.0944 255.242C81.7612 236.939 69.5278 214.413 63.6133 189.909L65.1349 189.541H66.7499C72.5675 213.357 84.4878 235.249 101.337 253.059L101.369 253.093Z" fill="#3F3D56"/>
<path d="M131.611 222.993L130.434 223.973L130.411 223.996L129.203 224.999C120.403 214.474 113.151 202.746 107.667 190.171L109.102 189.543H110.819C116.131 201.568 123.101 212.791 131.524 222.883C131.551 222.921 131.58 222.958 131.611 222.993Z" fill="#3F3D56"/>
</g>
<defs>
<clipPath id="clip0_204_833">
<rect width="400" height="389" fill="white"/>
</clipPath>
</defs>
</svg>
