<svg width="85" height="86" viewBox="0 0 85 86" fill="none" xmlns="http://www.w3.org/2000/svg">
<rect y="0.406982" width="85" height="85" rx="42.5" fill="white"/>
<g clip-path="url(#clip0_204_1063)">
<path fill-rule="evenodd" clip-rule="evenodd" d="M42.5 24.9062C43.2815 24.9062 44.0309 25.2167 44.5835 25.7692C45.136 26.3218 45.4464 27.0712 45.4464 27.8527V29.927C46.8286 30.1602 48.1232 30.759 49.196 31.6611C50.2688 32.5633 51.0807 33.736 51.5475 35.0577C51.7933 35.7907 51.7411 36.5909 51.4023 37.2857C51.0634 37.9806 50.4651 38.5144 49.7362 38.7722C49.0073 39.0299 48.2064 38.9909 47.5061 38.6634C46.8057 38.336 46.2622 37.7465 45.9925 37.022C45.8574 36.6381 45.6065 36.3057 45.2743 36.0707C44.9421 35.8356 44.5452 35.7095 44.1382 35.7098H40.3393C39.9861 35.7114 39.6459 35.8429 39.3835 36.0793C39.121 36.3157 38.9548 36.6404 38.9164 36.9915C38.8781 37.3426 38.9703 37.6955 39.1755 37.983C39.3806 38.2705 39.6844 38.4723 40.0289 38.5502L45.8197 39.8191C47.6046 40.207 49.1986 41.2047 50.3276 42.6407C51.4565 44.0766 52.05 45.861 52.0058 47.687C51.9616 49.5131 51.2826 51.2667 50.0855 52.6463C48.8884 54.026 47.248 54.9454 45.4464 55.2466V57.317C45.4464 58.0984 45.136 58.8478 44.5835 59.4004C44.0309 59.953 43.2815 60.2634 42.5 60.2634C41.7186 60.2634 40.9691 59.953 40.4166 59.4004C39.864 58.8478 39.5536 58.0984 39.5536 57.317V55.2466C38.1721 55.0127 36.8784 54.4137 35.8063 53.5115C34.7343 52.6094 33.923 51.437 33.4564 50.1159C33.3201 49.7494 33.258 49.3595 33.2738 48.9689C33.2897 48.5782 33.3831 48.1946 33.5487 47.8404C33.7143 47.4862 33.9487 47.1685 34.2383 46.9058C34.528 46.6431 34.867 46.4407 35.2356 46.3104C35.6042 46.18 35.9951 46.1243 36.3854 46.1466C36.7758 46.1688 37.1578 46.2685 37.5093 46.4399C37.8607 46.6113 38.1745 46.8509 38.4324 47.1448C38.6903 47.4386 38.8872 47.7809 39.0114 48.1516C39.1472 48.5347 39.3985 48.8663 39.7306 49.1006C40.0627 49.3349 40.4593 49.4604 40.8657 49.4598H44.1382C44.6245 49.4625 45.0944 49.2847 45.4571 48.9609C45.8198 48.6371 46.0496 48.1903 46.1019 47.7068C46.1542 47.2234 46.0253 46.7378 45.7402 46.3439C45.4552 45.95 45.0341 45.6759 44.5586 45.5745L38.7718 44.3095C37.0723 43.9369 35.5607 42.9719 34.5073 41.5872C33.4539 40.2024 32.9274 38.4881 33.0218 36.7508C33.1163 35.0135 33.8256 33.3664 35.023 32.104C36.2203 30.8416 37.8276 30.0463 39.5575 29.8602V27.8566C39.5575 27.0752 39.8679 26.3257 40.4205 25.7732C40.9731 25.2206 41.7225 24.9102 42.5039 24.9102L42.5 24.9062ZM20.2564 15.7762C18.9818 15.7762 17.7593 16.2823 16.8577 17.1833C15.956 18.0842 15.4489 19.3063 15.4479 20.5809V35.4662C15.4479 36.2477 15.7583 36.9971 16.3109 37.5497C16.8634 38.1022 17.6129 38.4127 18.3943 38.4127C19.1757 38.4127 19.9252 38.1022 20.4777 37.5497C21.0303 36.9971 21.3407 36.2477 21.3407 35.4662V21.6691H35.1379C35.9193 21.6691 36.6688 21.3587 37.2213 20.8061C37.7739 20.2536 38.0843 19.5041 38.0843 18.7227C38.0843 17.9412 37.7739 17.1918 37.2213 16.6392C36.6688 16.0867 35.9193 15.7762 35.1379 15.7762H20.2564ZM50.0232 15.7762C49.2418 15.7762 48.4924 16.0867 47.9398 16.6392C47.3872 17.1918 47.0768 17.9412 47.0768 18.7227C47.0768 19.5041 47.3872 20.2536 47.9398 20.8061C48.4924 21.3587 49.2418 21.6691 50.0232 21.6691H63.8204V35.4662C63.8204 36.2477 64.1308 36.9971 64.6834 37.5497C65.2359 38.1022 65.9854 38.4127 66.7668 38.4127C67.5482 38.4127 68.2977 38.1022 68.8502 37.5497C69.4028 36.9971 69.7132 36.2477 69.7132 35.4662V20.5809C69.7122 19.3069 69.2057 18.0855 68.3048 17.1846C67.404 16.2838 66.1825 15.7773 64.9086 15.7762H50.0232ZM66.7668 47.4012C67.5482 47.4012 68.2977 47.7117 68.8502 48.2642C69.4028 48.8168 69.7132 49.5662 69.7132 50.3477V65.233C69.7122 66.507 69.2057 67.7285 68.3048 68.6293C67.404 69.5301 66.1825 70.0366 64.9086 70.0377H50.0232C49.2418 70.0377 48.4924 69.7272 47.9398 69.1747C47.3872 68.6221 47.0768 67.8727 47.0768 67.0912C47.0768 66.3098 47.3872 65.5604 47.9398 65.0078C48.4924 64.4552 49.2418 64.1448 50.0232 64.1448H63.8204V50.3477C63.8204 49.5662 64.1308 48.8168 64.6834 48.2642C65.2359 47.7117 65.9854 47.4012 66.7668 47.4012ZM21.3407 50.3477C21.3407 49.9607 21.2645 49.5776 21.1164 49.2201C20.9684 48.8626 20.7513 48.5378 20.4777 48.2642C20.2041 47.9906 19.8793 47.7736 19.5219 47.6255C19.1644 47.4775 18.7812 47.4012 18.3943 47.4012C18.0074 47.4012 17.6242 47.4775 17.2668 47.6255C16.9093 47.7736 16.5845 47.9906 16.3109 48.2642C16.0373 48.5378 15.8202 48.8626 15.6722 49.2201C15.5241 49.5776 15.4479 49.9607 15.4479 50.3477V65.233C15.4489 66.5077 15.956 67.7297 16.8577 68.6307C17.7593 69.5316 18.9818 70.0377 20.2564 70.0377H35.1379C35.9193 70.0377 36.6688 69.7272 37.2213 69.1747C37.7739 68.6221 38.0843 67.8727 38.0843 67.0912C38.0843 66.3098 37.7739 65.5604 37.2213 65.0078C36.6688 64.4552 35.9193 64.1448 35.1379 64.1448H21.3407V50.3477Z" fill="#3E54D3"/>
</g>
<defs>
<clipPath id="clip0_204_1063">
<rect width="55" height="55" fill="white" transform="translate(15 15.407)"/>
</clipPath>
</defs>
</svg>
