<svg width="478" height="330" viewBox="0 0 478 330" fill="none" xmlns="http://www.w3.org/2000/svg">
<g clip-path="url(#clip0_199_32)">
<path d="M469.861 -0.000640869H8.1386C5.96212 0.020501 3.88289 0.903458 2.35703 2.45455C0.831177 4.00563 -0.0167238 6.09819 -0.00062949 8.27316V321.743C-0.0132212 323.916 0.836362 326.005 2.36196 327.552C3.88755 329.1 5.96479 329.98 8.1386 330H469.861C472.035 329.98 474.112 329.099 475.638 327.552C477.163 326.004 478.013 323.916 478.001 321.743V8.27316C478.017 6.09839 477.169 4.00602 475.643 2.45497C474.118 0.903912 472.039 0.0208154 469.863 -0.000640869H469.861Z" fill="#090814"/>
<path d="M456.217 1.63885H8.62886C6.53453 1.64281 4.52733 2.47688 3.0477 3.95803C1.56808 5.43918 0.736885 7.4464 0.736572 9.53924V308.877C0.739577 310.968 1.57206 312.972 3.0515 314.451C4.53094 315.929 6.53662 316.761 8.62886 316.764H456.217C458.309 316.761 460.315 315.929 461.794 314.451C463.274 312.972 464.106 310.968 464.109 308.877V9.53984C464.109 7.44757 463.278 5.44079 461.799 3.95972C460.32 2.47864 458.314 1.64419 456.22 1.63945L456.217 1.63885Z" fill="white"/>
<path d="M107.452 83.7484C121.39 83.7484 132.689 72.4576 132.689 58.5297C132.689 44.6017 121.39 33.3109 107.452 33.3109C93.5143 33.3109 82.2154 44.6017 82.2154 58.5297C82.2154 72.4576 93.5143 83.7484 107.452 83.7484Z" fill="#22C55E"/>
<path d="M106.687 71.98V69.3636C104.777 69.3377 102.93 68.6784 101.436 67.4894C100.781 66.912 100.258 66.2008 99.9019 65.4039C99.5458 64.607 99.3651 63.743 99.3721 62.8703H103.099C103.113 63.3074 103.22 63.7367 103.413 64.1293C103.605 64.522 103.88 64.869 104.218 65.1473C104.932 65.7036 105.792 66.043 106.694 66.1253V59.8734L105.558 59.5746C104.034 59.2446 102.616 58.5403 101.433 57.5253C100.942 57.0652 100.556 56.5051 100.301 55.8829C100.045 55.2606 99.9272 54.5909 99.9539 53.919C99.9334 52.836 100.236 51.7715 100.823 50.8611C101.424 49.9565 102.248 49.2214 103.215 48.7263C104.294 48.1704 105.476 47.8385 106.687 47.7506V45.0775H108.385V47.7369C109.629 47.7888 110.848 48.107 111.959 48.6702C112.922 49.162 113.743 49.8925 114.344 50.7918C114.921 51.6759 115.236 52.706 115.249 53.7618H111.586C111.557 53.3944 111.456 53.0363 111.288 52.7082C111.12 52.3801 110.888 52.0884 110.607 51.8499C109.971 51.3399 109.198 51.0299 108.385 50.9591V56.8567L109.333 57.0957C110.364 57.3479 111.364 57.7157 112.312 58.1921C113.227 58.64 114.023 59.2973 114.635 60.1106C115.26 60.9983 115.576 62.0671 115.532 63.1517C115.554 63.964 115.397 64.7711 115.073 65.5164C114.749 66.2616 114.265 66.9269 113.657 67.4655C112.406 68.5967 110.649 69.2284 108.384 69.3606V71.977L106.687 71.98ZM108.385 66.1128C109.28 66.0376 110.132 65.6924 110.827 65.1228C111.121 64.881 111.357 64.5763 111.518 64.2311C111.678 63.8859 111.759 63.509 111.754 63.1284C111.769 62.778 111.693 62.4296 111.531 62.1181C111.37 61.8067 111.129 61.5429 110.834 61.3533C110.079 60.8825 109.253 60.5363 108.387 60.328L108.385 66.1128ZM106.687 56.4224V50.9776C105.892 51.0559 105.142 51.3825 104.543 51.9108C104.296 52.1367 104.099 52.4122 103.966 52.7192C103.833 53.0263 103.767 53.358 103.771 53.6925C103.755 54.0406 103.829 54.3869 103.986 54.698C104.143 55.009 104.378 55.2741 104.668 55.4676C105.288 55.8879 105.969 56.2104 106.687 56.4236V56.4224Z" fill="#F2F2F2"/>
<path d="M331.857 44.9079H154.879C152.898 44.9079 151.291 46.5129 151.291 48.4927V68.8068C151.291 70.7866 152.898 72.3916 154.879 72.3916H331.857C333.838 72.3916 335.445 70.7866 335.445 68.8068V48.4927C335.445 46.5129 333.838 44.9079 331.857 44.9079Z" fill="#E6E6E6"/>
<path d="M381.907 57.0306L371.158 43.9686C370.866 43.6144 370.501 43.3277 370.087 43.1283C369.674 42.929 369.222 42.8218 368.763 42.8142C368.304 42.8066 367.849 42.8987 367.429 43.0842C367.009 43.2697 366.635 43.5442 366.331 43.8886L354.836 56.9481C354.292 57.5803 354.02 58.4013 354.078 59.2329C354.136 60.0645 354.52 60.8397 355.146 61.3903C355.773 61.9408 356.591 62.2223 357.424 62.1737C358.257 62.125 359.037 61.7502 359.595 61.1305L365.542 54.3724V71.3186C365.542 72.1584 365.876 72.9639 366.47 73.5577C367.065 74.1516 367.871 74.4852 368.711 74.4852C369.552 74.4852 370.358 74.1516 370.952 73.5577C371.546 72.9639 371.88 72.1584 371.88 71.3186V54.8146L377.014 61.0528C377.552 61.6859 378.318 62.0822 379.146 62.1561C379.974 62.23 380.799 61.9756 381.441 61.4478C382.083 60.92 382.492 60.1611 382.579 59.3348C382.667 58.5084 382.426 57.6809 381.908 57.0306H381.907Z" fill="#22C55E"/>
<path d="M242.004 159.02H87.6557C86.2132 159.019 84.8304 158.445 83.8104 157.426C82.7904 156.407 82.2166 155.025 82.2148 153.583V136.987C82.2166 135.545 82.7904 134.164 83.8104 133.144C84.8304 132.125 86.2132 131.552 87.6557 131.55H242.004C243.446 131.552 244.829 132.125 245.849 133.144C246.869 134.164 247.443 135.545 247.444 136.987V153.584C247.443 155.026 246.869 156.407 245.849 157.427C244.829 158.446 243.446 159.019 242.004 159.021V159.02ZM87.6557 132.119C86.3651 132.12 85.1277 132.633 84.215 133.545C83.3024 134.457 82.7891 135.694 82.7876 136.983V153.58C82.7891 154.87 83.3024 156.107 84.215 157.019C85.1277 157.931 86.3651 158.444 87.6557 158.445H242.004C243.294 158.444 244.532 157.931 245.444 157.019C246.357 156.107 246.87 154.87 246.872 153.58V136.987C246.871 135.697 246.357 134.46 245.445 133.548C244.532 132.636 243.294 132.122 242.004 132.121L87.6557 132.119Z" fill="#CCCCCC"/>
<path d="M108.512 154.749C106.639 154.749 104.808 154.194 103.251 153.154C101.694 152.114 100.48 150.636 99.763 148.907C99.0462 147.177 98.8587 145.275 99.2241 143.439C99.5895 141.603 100.491 139.917 101.816 138.594C103.14 137.27 104.828 136.369 106.665 136.004C108.502 135.639 110.406 135.826 112.136 136.542C113.867 137.258 115.346 138.471 116.386 140.028C117.427 141.584 117.982 143.414 117.982 145.285C117.982 147.795 116.985 150.202 115.209 151.977C113.433 153.752 111.024 154.749 108.512 154.749Z" fill="#22C55E"/>
<path d="M228.022 153.012H126.938C126.634 153.017 126.332 152.961 126.05 152.848C125.767 152.735 125.51 152.568 125.294 152.354C125.077 152.141 124.905 151.887 124.788 151.607C124.67 151.327 124.61 151.026 124.61 150.723C124.61 150.419 124.67 150.118 124.788 149.838C124.905 149.558 125.077 149.304 125.294 149.091C125.51 148.877 125.767 148.71 126.05 148.597C126.332 148.484 126.634 148.428 126.938 148.433H228.022C228.63 148.433 229.213 148.675 229.642 149.104C230.072 149.533 230.313 150.116 230.313 150.723C230.313 151.33 230.072 151.912 229.642 152.342C229.213 152.771 228.63 153.012 228.022 153.012V153.012Z" fill="#22C55E"/>
<path d="M195.089 143.282H126.935C126.327 143.282 125.744 143.041 125.315 142.612C124.885 142.183 124.644 141.6 124.644 140.993C124.644 140.386 124.885 139.803 125.315 139.374C125.744 138.945 126.327 138.703 126.935 138.703H195.089C195.393 138.699 195.695 138.754 195.977 138.867C196.259 138.98 196.516 139.148 196.733 139.361C196.949 139.574 197.121 139.828 197.239 140.108C197.356 140.388 197.417 140.689 197.417 140.993C197.417 141.296 197.356 141.597 197.239 141.877C197.121 142.158 196.949 142.412 196.733 142.625C196.516 142.838 196.259 143.005 195.977 143.118C195.695 143.231 195.393 143.287 195.089 143.282Z" fill="#22C55E"/>
<path d="M242.004 205.615H87.6557C86.2132 205.613 84.8304 205.04 83.8104 204.021C82.7904 203.001 82.2166 201.619 82.2148 200.178V183.581C82.2166 182.14 82.7904 180.758 83.8104 179.739C84.8304 178.72 86.2132 178.146 87.6557 178.144H242.004C243.446 178.146 244.829 178.72 245.849 179.739C246.869 180.758 247.443 182.14 247.444 183.581V200.179C247.443 201.62 246.869 203.002 245.849 204.021C244.829 205.041 243.446 205.614 242.004 205.616V205.615ZM87.6557 178.713C86.3651 178.715 85.1277 179.228 84.215 180.14C83.3024 181.052 82.7891 182.288 82.7876 183.578V200.175C82.7891 201.465 83.3024 202.701 84.215 203.613C85.1277 204.525 86.3651 205.038 87.6557 205.04H242.004C243.294 205.038 244.532 204.525 245.444 203.613C246.357 202.701 246.87 201.465 246.872 200.175V183.581C246.871 182.291 246.357 181.055 245.445 180.142C244.532 179.23 243.294 178.717 242.004 178.716L87.6557 178.713Z" fill="#CCCCCC"/>
<path d="M108.512 201.343C106.639 201.343 104.808 200.788 103.251 199.748C101.694 198.708 100.48 197.23 99.763 195.501C99.0462 193.772 98.8587 191.869 99.2241 190.033C99.5895 188.198 100.491 186.512 101.816 185.188C103.14 183.865 104.828 182.963 106.665 182.598C108.502 182.233 110.406 182.42 112.136 183.137C113.867 183.853 115.346 185.066 116.386 186.622C117.427 188.178 117.982 190.008 117.982 191.88C117.982 194.39 116.985 196.797 115.209 198.571C113.433 200.346 111.024 201.343 108.512 201.343Z" fill="#E6E6E6"/>
<path d="M228.022 199.606H126.938C126.634 199.611 126.332 199.556 126.05 199.443C125.767 199.33 125.51 199.162 125.294 198.949C125.077 198.736 124.905 198.482 124.788 198.202C124.67 197.922 124.61 197.621 124.61 197.317C124.61 197.013 124.67 196.713 124.788 196.432C124.905 196.152 125.077 195.898 125.294 195.685C125.51 195.472 125.767 195.304 126.05 195.191C126.332 195.079 126.634 195.023 126.938 195.028H228.022C228.63 195.028 229.213 195.269 229.642 195.698C230.072 196.128 230.313 196.71 230.313 197.317C230.313 197.925 230.072 198.507 229.642 198.936C229.213 199.366 228.63 199.607 228.022 199.607V199.606Z" fill="#E6E6E6"/>
<path d="M195.089 189.877H126.935C126.327 189.877 125.744 189.636 125.315 189.206C124.885 188.777 124.644 188.195 124.644 187.587C124.644 186.98 124.885 186.398 125.315 185.969C125.744 185.539 126.327 185.298 126.935 185.298H195.089C195.393 185.293 195.695 185.349 195.977 185.462C196.259 185.574 196.516 185.742 196.733 185.955C196.949 186.168 197.121 186.422 197.239 186.702C197.356 186.983 197.417 187.283 197.417 187.587C197.417 187.891 197.356 188.192 197.239 188.472C197.121 188.752 196.949 189.006 196.733 189.219C196.516 189.432 196.259 189.6 195.977 189.713C195.695 189.826 195.393 189.882 195.089 189.877Z" fill="#E6E6E6"/>
<path d="M242.004 252.21H87.6557C86.2132 252.208 84.8304 251.634 83.8104 250.615C82.7904 249.596 82.2166 248.214 82.2148 246.773V230.176C82.2166 228.735 82.7904 227.353 83.8104 226.333C84.8304 225.314 86.2132 224.741 87.6557 224.739H242.004C243.446 224.741 244.829 225.314 245.849 226.333C246.869 227.353 247.443 228.735 247.444 230.176V246.773C247.443 248.215 246.869 249.597 245.849 250.616C244.829 251.635 243.446 252.208 242.004 252.21V252.21ZM87.6557 225.308C86.3651 225.309 85.1277 225.822 84.215 226.734C83.3024 227.646 82.7891 228.883 82.7876 230.172V246.77C82.7891 248.059 83.3024 249.296 84.215 250.208C85.1277 251.12 86.3651 251.633 87.6557 251.634H242.004C243.294 251.633 244.532 251.12 245.444 250.208C246.357 249.296 246.87 248.059 246.872 246.77V230.176C246.871 228.886 246.357 227.649 245.445 226.737C244.532 225.825 243.294 225.312 242.004 225.31L87.6557 225.308Z" fill="#CCCCCC"/>
<path d="M108.512 247.938C106.639 247.938 104.808 247.383 103.251 246.343C101.694 245.303 100.48 243.825 99.763 242.096C99.0462 240.367 98.8587 238.464 99.2241 236.628C99.5895 234.792 100.491 233.106 101.816 231.783C103.14 230.459 104.828 229.558 106.665 229.193C108.502 228.828 110.406 229.015 112.136 229.731C113.867 230.447 115.346 231.66 116.386 233.217C117.427 234.773 117.982 236.603 117.982 238.474C117.982 240.984 116.985 243.391 115.209 245.166C113.433 246.941 111.024 247.938 108.512 247.938Z" fill="#E6E6E6"/>
<path d="M228.022 246.201H126.938C126.634 246.206 126.332 246.15 126.05 246.037C125.767 245.924 125.51 245.757 125.294 245.544C125.077 245.33 124.905 245.076 124.788 244.796C124.67 244.516 124.61 244.215 124.61 243.912C124.61 243.608 124.67 243.307 124.788 243.027C124.905 242.747 125.077 242.493 125.294 242.28C125.51 242.067 125.767 241.899 126.05 241.786C126.332 241.673 126.634 241.617 126.938 241.622H228.022C228.63 241.622 229.213 241.864 229.642 242.293C230.072 242.722 230.313 243.305 230.313 243.912C230.313 244.519 230.072 245.101 229.642 245.531C229.213 245.96 228.63 246.201 228.022 246.201V246.201Z" fill="#E6E6E6"/>
<path d="M195.089 236.472H126.935C126.327 236.472 125.744 236.23 125.315 235.801C124.885 235.372 124.644 234.789 124.644 234.182C124.644 233.575 124.885 232.992 125.315 232.563C125.744 232.134 126.327 231.893 126.935 231.893H195.089C195.393 231.888 195.695 231.943 195.977 232.056C196.259 232.169 196.516 232.337 196.733 232.55C196.949 232.763 197.121 233.017 197.239 233.297C197.356 233.577 197.417 233.878 197.417 234.182C197.417 234.486 197.356 234.786 197.239 235.066C197.121 235.347 196.949 235.601 196.733 235.814C196.516 236.027 196.259 236.195 195.977 236.307C195.695 236.42 195.393 236.476 195.089 236.472Z" fill="#E6E6E6"/>
<path d="M296.916 252.21H285.331C285.017 252.209 284.716 252.085 284.494 251.863C284.272 251.641 284.148 251.341 284.147 251.027V212.873C284.148 212.559 284.272 212.258 284.494 212.037C284.716 211.815 285.017 211.69 285.331 211.69H296.919C297.233 211.69 297.533 211.815 297.755 212.037C297.977 212.258 298.102 212.559 298.103 212.873V251.027C298.102 251.183 298.072 251.337 298.012 251.48C297.952 251.624 297.865 251.754 297.754 251.864C297.644 251.974 297.513 252.061 297.369 252.12C297.226 252.179 297.071 252.21 296.916 252.21Z" fill="#22C55E"/>
<path d="M318.048 252.21H306.46C306.146 252.209 305.846 252.085 305.624 251.863C305.402 251.641 305.277 251.341 305.276 251.027V197.733C305.277 197.419 305.402 197.118 305.624 196.897C305.846 196.675 306.146 196.55 306.46 196.55H318.048C318.362 196.55 318.663 196.675 318.885 196.897C319.107 197.118 319.231 197.419 319.232 197.733V251.027C319.231 251.341 319.107 251.641 318.885 251.863C318.663 252.085 318.362 252.209 318.048 252.21Z" fill="#22C55E"/>
<path d="M339.18 252.21H327.592C327.279 252.209 326.978 252.085 326.756 251.863C326.534 251.641 326.409 251.341 326.408 251.027V212.873C326.409 212.559 326.534 212.258 326.756 212.037C326.978 211.815 327.279 211.69 327.592 211.69H339.18C339.494 211.69 339.795 211.815 340.017 212.037C340.239 212.258 340.364 212.559 340.364 212.873V251.027C340.364 251.341 340.239 251.641 340.017 251.863C339.795 252.085 339.494 252.209 339.18 252.21Z" fill="#22C55E"/>
<path d="M360.313 252.21H348.725C348.418 252.217 348.122 252.102 347.9 251.89C347.678 251.678 347.549 251.387 347.541 251.081V191.705C347.549 191.398 347.678 191.107 347.9 190.896C348.122 190.684 348.418 190.569 348.725 190.575H360.313C360.62 190.569 360.917 190.684 361.139 190.895C361.36 191.107 361.489 191.398 361.497 191.705V251.083C361.489 251.389 361.36 251.68 361.138 251.891C360.916 252.102 360.619 252.217 360.313 252.21Z" fill="#22C55E"/>
<path d="M381.445 252.21H369.857C369.543 252.209 369.242 252.085 369.02 251.863C368.798 251.641 368.673 251.341 368.673 251.027V180.998C368.673 180.684 368.798 180.384 369.02 180.162C369.242 179.941 369.543 179.816 369.857 179.816H381.445C381.758 179.816 382.059 179.941 382.281 180.162C382.503 180.384 382.628 180.684 382.628 180.998V251.027C382.628 251.341 382.503 251.641 382.281 251.863C382.059 252.085 381.758 252.209 381.445 252.21Z" fill="#22C55E"/>
<g clip-path="url(#clip1_199_32)">
<path d="M324.836 207.631C327.383 207.265 336.73 216.03 326.827 228.376C318.405 222.881 321.206 208.153 324.836 207.631Z" fill="#090814"/>
<path d="M323.84 245.53C323.913 245.426 323.385 245.143 325.433 243.536C328.925 240.796 337.146 238.547 341.763 238.549C335.834 237.427 330.489 240.132 325.433 242.738C327.334 229.373 345.662 234.497 344.153 239.347C343.977 239.913 334.374 244.554 333.598 244.733C327.841 246.059 326.61 243.375 323.84 245.53Z" fill="#090814"/>
<path d="M333.001 271.462C333.104 271.341 333.184 270.79 334.992 269.068C338.932 265.316 346.403 262.38 351.522 265.477C355.451 267.855 346.359 273.143 344.751 273.456C341.566 274.076 335.952 273.065 333.001 271.462Z" fill="#090814"/>
<path d="M344.95 256.302C344.791 256.455 344.276 255.779 344.153 257.1C340.302 260.31 338.169 251.877 340.17 246.129C343.925 235.343 351.445 249.239 344.95 256.302Z" fill="#090814"/>
<path d="M354.111 249.919L370.441 248.124C361.83 247.741 351.822 250.22 356.5 246.727C361.432 243.045 377.948 244.764 367.852 251.515C362.717 254.948 358.681 253.084 354.111 249.919Z" fill="#090814"/>
<path d="M328.62 230.77C326.159 234.628 324.836 241.05 323.043 245.331L323.84 245.53C321.401 249.044 319.715 255.777 319.06 260.092L326.827 278.643C331.756 272.423 337.502 263.044 343.755 258.297C343.827 258.718 343.602 259.198 343.357 259.493C340.66 262.739 337.082 265.298 334.992 269.068C333.184 270.79 333.104 271.341 333.001 271.462C332.286 272.303 327.51 278.77 327.425 279.241C327.29 279.986 329.985 288.283 331.009 288.616C330.452 289.13 330.058 289.08 330.213 289.813C327.107 280.012 317.195 255.971 312.688 245.53C312.944 245.559 313.279 245.473 313.484 245.53L318.463 257.898C319.699 253.571 321.1 252.41 319.06 249.919H319.459C321.493 252.499 322.876 241.318 328.221 230.77L328.62 230.77Z" fill="#090814"/>
<path d="M356.5 246.727C351.822 250.22 361.83 247.74 370.441 248.124L354.111 249.919C353.904 249.776 353.572 249.584 353.314 249.52C354.279 248.548 355.21 247.378 356.102 246.328C356.212 246.276 356.4 246.383 356.5 246.328V246.727Z" fill="white"/>
<path d="M356.102 246.328C355.21 247.378 354.279 248.548 353.314 249.52C350.693 252.16 347.595 254.498 345.348 257.499C345.295 257.533 344.724 257.49 344.153 257.898C344.164 257.635 344.129 257.36 344.153 257.1C344.519 256.795 344.644 256.634 344.95 256.302C348.39 252.977 352.184 249.982 355.306 246.328C355.514 246.258 355.951 246.4 356.102 246.328Z" fill="#090814"/>
<path d="M325.433 243.536V242.738C330.489 240.132 335.834 237.427 341.763 238.549C337.146 238.547 328.925 240.796 325.433 243.536Z" fill="white"/>
<path d="M319.06 249.919C321.1 252.41 319.699 253.57 318.463 257.898L313.484 245.53C313.826 245.627 318.836 249.644 319.06 249.919Z" fill="white"/>
<path d="M328.62 230.77H328.221C332.134 223.049 337.573 216.199 341.763 208.628C346.611 203.089 357.013 195.137 364.666 197.658C369.777 199.341 366.006 204.123 363.471 206.434C354.397 214.706 336.912 212.426 332.802 224.786C339.781 216.502 349.866 222.436 350.128 224.985C350.554 229.149 337.196 235.245 330.81 227.977C329.889 228.752 329.253 229.776 328.62 230.77Z" fill="#090814"/>
<path d="M339.573 223.589C347.791 222.533 353.611 224.59 338.776 224.387L332.403 227.179L332.005 226.381C334.399 225.411 336.974 223.923 339.573 223.589Z" fill="white"/>
<path d="M360.483 241.94C361.19 240.809 363.854 231.275 372.631 230.371C386.997 228.891 374.672 241.602 369.843 242.339C366.345 242.873 363.025 240.908 360.483 241.94Z" fill="#090814"/>
<path d="M377.013 232.365L378.008 232.565C358.456 242.694 354.915 243.2 377.013 232.365Z" fill="white"/>
<path d="M331.607 252.312C334.764 251.603 340.215 262.31 331.607 271.462C323.733 264.669 328.886 252.924 331.607 252.312Z" fill="#090814"/>
<path d="M332.005 253.509C333.26 258.398 332.345 264.89 331.607 269.866L332.005 253.509Z" fill="white"/>
<path d="M360.483 241.94C359.536 243.457 358.071 245.471 356.5 246.328C356.4 246.383 356.212 246.276 356.102 246.328C355.951 246.4 355.514 246.258 355.305 246.328C353.873 246.811 353.579 247.696 353.115 247.525C346.004 237.948 356.492 223.886 359.288 235.357C360.756 241.379 356.495 245.505 360.483 241.94Z" fill="#090814"/>
<path d="M355.505 232.764L355.704 238.549C353.475 254.055 354.356 239.752 355.505 232.764Z" fill="white"/>
<path d="M344.95 256.302C344.644 256.634 344.519 256.795 344.153 257.1C344.276 255.779 344.791 256.455 344.95 256.302Z" fill="white"/>
<path d="M343.357 259.493C343.602 259.198 343.827 258.718 343.755 258.297C343.777 258.28 343.732 258.198 344.153 257.898C344.724 257.49 345.295 257.533 345.348 257.499C357.089 250.025 363.974 254.69 358.293 259.094C354.052 262.382 347.813 262.298 343.357 259.493Z" fill="#090814"/>
<path d="M359.886 255.903C360.206 256.036 360.207 256.564 359.886 256.701C356.371 258.197 330.09 259.756 359.886 255.903Z" fill="white"/>
<path d="M343.357 319.733L342.56 319.534C342.982 318.956 343.323 318.973 343.357 318.936C343.303 319.037 343.386 319.427 343.357 319.733Z" fill="white"/>
<path d="M341.365 320.332C341.285 320.651 341.28 321.539 341.564 321.728C341.815 321.391 343.235 319.791 343.357 319.733C345.099 318.913 350.584 318.121 352.717 318.138C353.915 318.147 366.1 320.108 366.06 321.13C361.519 325.918 346.258 327.321 340.967 324.122C346.685 321.661 353.311 322.976 359.289 321.13L339.772 323.124" fill="#090814"/>
<path d="M343.357 318.936C343.323 318.973 342.983 318.956 342.56 319.534L343.357 319.733C343.235 319.791 341.815 321.391 341.564 321.728C341.28 321.539 341.285 320.652 341.365 320.332" fill="#555758"/>
<path d="M340.17 324.92V323.922C340.426 323.445 340.657 324.255 340.967 324.122C346.258 327.321 361.519 325.918 366.06 321.13C366.1 320.108 353.915 318.147 352.717 318.138C350.584 318.121 345.099 318.913 343.357 319.733C343.386 319.427 343.303 319.037 343.357 318.936C344.288 317.901 345.68 317.092 346.543 315.944C346.88 307.477 356.461 300.063 363.869 297.393C376.498 292.84 374.697 300.039 368.848 307.566C359.741 319.284 343.389 315.226 344.551 318.736C352.07 316.505 359.997 318.143 367.254 320.731C361.766 327.389 347.687 327.052 340.17 324.92Z" fill="#090814"/>
<path d="M368.25 296.595C374.104 295.86 373.577 298.658 370.043 304.773C366.891 310.226 359.346 315.106 353.115 315.744C343.827 316.696 355.029 313.298 361.479 308.563C371.103 300.32 350.196 315.076 348.335 315.744C344.887 316.981 349.359 308.052 353.115 304.574C355.536 302.332 365.24 296.973 368.25 296.595Z" fill="#090814"/>
<path d="M167.955 187.93C164.986 187.504 154.087 197.724 165.633 212.12C175.454 205.712 172.187 188.539 167.955 187.93Z" fill="#090814"/>
<path d="M169.117 232.122C169.032 232 169.647 231.67 167.259 229.796C163.188 226.602 153.601 223.979 148.217 223.982C155.131 222.673 161.364 225.828 167.259 228.866C165.043 213.283 143.671 219.258 145.431 224.912C145.636 225.573 156.834 230.984 157.738 231.192C164.451 232.739 165.886 229.609 169.117 232.122Z" fill="#090814"/>
<path d="M158.435 262.359C158.315 262.218 158.221 261.576 156.113 259.568C151.519 255.193 142.808 251.77 136.839 255.381C132.257 258.153 142.858 264.32 144.734 264.685C148.447 265.408 154.993 264.229 158.435 262.359Z" fill="#090814"/>
<path d="M144.502 244.682C144.686 244.861 145.288 244.073 145.431 245.612C149.922 249.356 152.408 239.523 150.075 232.82C145.696 220.243 136.928 236.446 144.502 244.682Z" fill="#090814"/>
<path d="M133.82 237.239L114.779 235.146C124.819 234.699 136.488 237.591 131.033 233.518C125.283 229.224 106.025 231.229 117.797 239.1C123.784 243.103 128.491 240.93 133.82 237.239Z" fill="#090814"/>
<path d="M163.543 214.911C166.412 219.41 167.956 226.898 170.045 231.89L169.116 232.122C171.96 236.22 173.927 244.07 174.69 249.101L165.633 270.732C159.886 263.48 153.186 252.543 145.895 247.008C145.811 247.499 146.073 248.059 146.36 248.404C149.503 252.188 153.676 255.171 156.113 259.568C158.221 261.576 158.315 262.218 158.435 262.359C159.269 263.34 164.837 270.88 164.937 271.43C165.094 272.299 161.952 281.973 160.757 282.361C161.407 282.96 161.866 282.902 161.686 283.757C165.307 272.329 176.865 244.297 182.12 232.122C181.822 232.156 181.431 232.055 181.192 232.122L175.386 246.543C173.945 241.497 172.311 240.144 174.69 237.239H174.225C171.853 240.248 170.241 227.211 164.008 214.911L163.543 214.911Z" fill="#090814"/>
<path d="M131.034 233.518C136.488 237.591 124.819 234.699 114.779 235.146L133.82 237.239C134.061 237.072 134.448 236.849 134.749 236.774C133.624 235.641 132.538 234.276 131.498 233.053C131.37 232.992 131.151 233.117 131.034 233.053V233.518Z" fill="white"/>
<path d="M131.498 233.053C132.538 234.276 133.624 235.641 134.749 236.774C137.805 239.853 141.417 242.578 144.037 246.078C144.099 246.117 144.765 246.068 145.431 246.543C145.418 246.237 145.459 245.916 145.431 245.613C145.005 245.257 144.858 245.07 144.502 244.682C140.49 240.806 136.067 237.313 132.427 233.053C132.183 232.971 131.674 233.137 131.498 233.053Z" fill="#090814"/>
<path d="M167.259 229.796V228.866C161.364 225.828 155.131 222.673 148.217 223.982C153.601 223.979 163.188 226.602 167.259 229.796Z" fill="white"/>
<path d="M174.69 237.239C172.311 240.144 173.946 241.497 175.386 246.543L181.192 232.122C180.794 232.235 174.952 236.919 174.69 237.239Z" fill="white"/>
<path d="M163.543 214.911H164.008C159.445 205.908 153.103 197.921 148.217 189.093C142.565 182.635 130.436 173.362 121.513 176.301C115.553 178.264 119.95 183.84 122.906 186.535C133.487 196.181 153.874 193.521 158.667 207.933C150.529 198.274 138.769 205.194 138.464 208.166C137.967 213.021 153.543 220.129 160.989 211.655C162.064 212.558 162.805 213.753 163.543 214.911Z" fill="#090814"/>
<path d="M150.772 206.538C141.189 205.307 134.403 207.706 151.7 207.468L159.131 210.724L159.596 209.794C156.805 208.662 153.802 206.927 150.772 206.538Z" fill="white"/>
<path d="M126.389 227.936C125.566 226.617 122.459 215.5 112.224 214.446C95.4739 212.72 109.845 227.542 115.475 228.401C119.555 229.023 123.425 226.732 126.389 227.936Z" fill="#090814"/>
<path d="M107.115 216.771L105.954 217.004C128.753 228.815 132.882 229.404 107.115 216.771Z" fill="white"/>
<path d="M160.06 240.03C156.378 239.203 150.023 251.687 160.06 262.359C169.241 254.438 163.233 240.743 160.06 240.03Z" fill="#090814"/>
<path d="M159.596 241.426C158.133 247.126 159.199 254.696 160.06 260.498L159.596 241.426Z" fill="white"/>
<path d="M126.389 227.936C127.494 229.705 129.203 232.053 131.033 233.053C131.151 233.117 131.37 232.992 131.498 233.053C131.674 233.136 132.183 232.971 132.427 233.053C134.097 233.616 134.44 234.647 134.981 234.448C143.273 223.281 131.043 206.884 127.783 220.26C126.071 227.282 131.039 232.093 126.389 227.936Z" fill="#090814"/>
<path d="M132.195 217.237L131.962 223.982C134.561 242.063 133.534 225.384 132.195 217.237Z" fill="white"/>
<path d="M144.502 244.682C144.858 245.07 145.005 245.257 145.431 245.613C145.288 244.073 144.687 244.861 144.502 244.682Z" fill="white"/>
<path d="M146.36 248.404C146.073 248.059 145.811 247.499 145.895 247.008C145.869 246.988 145.921 246.893 145.431 246.543C144.765 246.068 144.099 246.117 144.037 246.078C130.348 237.363 122.319 242.802 128.944 247.938C133.888 251.772 141.163 251.673 146.36 248.404Z" fill="#090814"/>
<path d="M127.086 244.217C126.713 244.373 126.711 244.988 127.086 245.147C131.184 246.892 161.829 248.71 127.086 244.217Z" fill="white"/>
<path d="M146.36 318.645L147.288 318.413C146.796 317.739 146.398 317.758 146.36 317.715C146.422 317.833 146.325 318.288 146.36 318.645Z" fill="white"/>
<path d="M148.682 319.343C148.775 319.716 148.781 320.75 148.449 320.971C148.157 320.578 146.501 318.712 146.36 318.645C144.328 317.689 137.932 316.766 135.446 316.785C134.048 316.795 119.84 319.082 119.887 320.273C125.182 325.857 142.976 327.493 149.146 323.762C142.479 320.892 134.752 322.426 127.782 320.273L150.539 322.599" fill="#090814"/>
<path d="M146.36 317.715C146.398 317.758 146.796 317.739 147.288 318.413L146.36 318.645C146.501 318.712 148.157 320.578 148.449 320.971C148.781 320.75 148.775 319.716 148.682 319.343" fill="#555758"/>
<path d="M150.075 324.693V323.53C149.777 322.973 149.507 323.917 149.146 323.762C142.976 327.493 125.182 325.857 119.887 320.273C119.84 319.082 134.048 316.795 135.446 316.785C137.932 316.766 144.328 317.689 146.36 318.645C146.325 318.288 146.422 317.833 146.36 317.715C145.273 316.509 143.65 315.565 142.644 314.226C142.251 304.354 131.08 295.709 122.442 292.595C107.715 287.287 109.816 295.682 116.636 304.457C127.255 318.121 146.322 313.389 144.966 317.482C136.199 314.88 126.956 316.791 118.494 319.808C124.893 327.572 141.31 327.179 150.075 324.693Z" fill="#090814"/>
<path d="M117.333 291.665C110.508 290.808 111.122 294.07 115.243 301.201C118.918 307.559 127.716 313.249 134.981 313.994C145.811 315.103 132.749 311.142 125.228 305.62C114.006 296.008 138.384 313.215 140.554 313.994C144.575 315.436 139.361 305.025 134.981 300.969C132.158 298.354 120.843 292.106 117.333 291.665Z" fill="#090814"/>
<path d="M201.149 154.837C195.501 131.816 209.554 108.568 232.538 102.911C255.522 97.2534 278.733 111.33 284.381 134.351C288.961 153.021 280.582 171.839 264.992 181.303L270.012 236.538L220.601 212.4C220.601 212.4 226.688 198.915 228.312 185C215.25 180.299 204.709 169.349 201.149 154.837Z" fill="#FFB6B6"/>
<path d="M266.223 196.386C266.223 196.386 248.313 227.892 221.01 198.232L170.333 269.991L194.529 328.336L305.108 330L300.277 261.912L266.223 196.386Z" fill="#D6D6E3"/>
<path d="M222.525 205.131L227.688 196.386C227.688 196.386 165.069 206.883 165.049 224.081L136.819 311.846C135.327 316.484 141.988 321.567 145.501 324.937C147.825 327.165 150.906 328.427 154.122 328.468L178.79 328.785L179.388 300.877L196.64 247.865L222.525 205.131Z" fill="#D6D6E3"/>
<path d="M264.403 203.204L265.918 196.304C265.918 196.304 321.858 204.956 321.878 222.154L350.109 309.919C351.6 314.556 344.94 319.64 341.426 323.009C339.103 325.237 336.021 326.5 332.805 326.541L308.137 326.857L307.54 298.95L290.287 245.938L264.403 203.204Z" fill="#D6D6E3"/>
<path d="M269.665 197.09C269.516 197.035 269.332 196.985 269.11 196.94C263.788 195.858 263.204 196.745 261.941 186.168C261.738 184.468 261.578 182.642 261.145 180.982C265.808 176.449 272.05 166.985 274.687 160.835C275.383 160.28 277.763 158.801 277.873 158.641C277.873 158.641 277.873 158.686 278.271 158.242C284.657 147.881 283.059 138.225 276.081 146.673C264.604 134.482 244.228 133.42 234.658 120.742C226.598 123.253 220.611 132.329 218.128 140.09C214.945 150.042 217.332 160.835 217.332 160.835C219.118 166.432 227.701 178.587 231.671 182.179C232.574 186.257 232.095 189.902 231.272 193.748C230.913 195.429 229.218 197.706 229.281 198.336L206.976 195.543C206.652 194.765 199.819 193.719 195.824 183.575C186.787 160.634 197.054 97.7707 230.675 98.0022C239.947 85.478 259.776 89.3626 270.505 98.0022C291.643 115.025 305.652 171.257 290.22 188.761C283.985 195.834 273.229 195.88 271.286 197.03L269.665 197.09Z" fill="#090814"/>
<path d="M278.271 158.242C280.001 158.436 281.663 161.363 281.458 163.229C281.048 166.961 274.841 166.979 275.483 164.026C275.664 163.195 278.781 162.4 277.873 158.242" fill="white"/>
<path d="M247.682 264.232C247.544 266.51 247.217 268.699 247.785 270.972C251.867 267.29 258.663 266.53 256.835 268.977C256.483 269.448 251.431 270.39 251.175 272.909C260.079 268.806 262.705 264.337 256.164 276.347C252.292 279.457 248.214 276.875 247.644 277.227C245.793 278.371 248.024 296.174 249.208 295.36C249.739 285.498 249.985 308.618 254.402 312.278C255.801 313.438 253.629 307.004 255.755 309.659C256.014 309.983 256.177 312.947 256.145 313.586C256.138 313.743 255.266 313.188 255.47 316.108C253.696 313.647 252.604 310.746 251.203 308.062C250.674 304.797 248.051 294.948 246.253 292.841C241.639 287.434 240.086 294.946 235.063 283.541C244.006 283.085 246.469 292.804 247.366 292.162C244.808 284.602 246.732 276.774 246.433 276.016C245.827 274.48 241.598 271.522 245.126 276.55C239.316 276.523 238 272.348 234.954 268.316C239.522 267.194 244.294 268.788 246.382 273.252C246.723 270.668 247.21 260.636 244.484 260.017C243.719 259.843 242.953 265.931 230.878 256.779C236.622 252.819 243.88 252.42 246.227 260.112C249.938 253.119 246.675 256.811 246.417 256.621C245.735 256.119 248.117 251.617 237.209 243.052C243.235 252.561 220.896 244.411 234.74 242.714C232.521 231.049 235.519 239.813 237.402 241.985C238.409 243.147 246.002 251.113 246.655 251.045C246.909 251.018 247.787 247.194 250.187 249.151C252.77 251.257 248.167 258.003 250.532 256.375C254.702 253.504 247.678 243.013 249.743 238.823C252.967 232.285 250.261 241.192 253.714 239.984C245.963 249.549 259.785 251.534 247.05 261.033C247.001 262.025 247.692 264.07 247.682 264.232Z" fill="#FF6363"/>
<path d="M265.862 270.925C264.446 272.37 261.435 273.099 259.523 273.742C254.222 278.386 255.918 300.18 257.565 307.103C256.32 307.051 256.189 306.617 256.112 306.62L254.994 300.026L255.145 307.105C254.572 307.27 254.499 307.19 254.467 307.203C254.311 304.285 253.767 301.966 253.976 298.96C254.103 297.142 255.247 297.789 255.282 297.214C255.331 296.41 254.748 291.875 254.984 287.904C255.158 284.964 256.738 276.07 256.522 274.521C255.973 270.584 248.319 263.299 255.642 263.563C255.254 260.903 257.641 256.754 258.877 253.572C259.394 252.241 261.783 248.727 261.632 247.46C261.396 245.494 259.878 246.523 259.258 245.377C258.337 243.678 260.207 236.003 262.155 236.647C263.307 237.028 260.847 242.099 267.964 236.158C266.65 245.732 269.984 240.55 271.261 242.264C273.712 245.557 262.191 243.356 258.444 256.579C256.931 261.92 259.037 265.999 263.82 260.308C266.252 264.822 263.265 267.44 263.924 268.26C264.421 268.878 270.4 266.293 265.862 270.925Z" fill="#22C55E"/>
<path d="M224.72 254.301C225.887 257.053 226.778 259.81 228.77 262.144C231.41 255.438 238.935 250.572 238.219 254.51C238.081 255.269 232.706 259.328 233.874 262.432C241.923 252.413 242.396 245.637 241.729 263.545C239.002 269.457 232.715 268.814 232.252 269.56C230.749 271.985 243.744 291.553 244.658 289.907C239.531 278.033 253.3 304.997 260.612 306.706C262.929 307.247 256.631 300.974 260.671 302.843C261.165 303.071 263.083 306.451 263.419 307.219C263.502 307.408 262.156 307.266 264.097 310.571C260.582 308.724 257.611 305.96 254.404 303.633C251.88 300.114 243.062 290.1 239.725 288.682C231.162 285.041 233.722 294.757 221.182 284.322C231.402 278.556 239.956 288.511 240.633 287.234C233.227 279.866 230.918 269.562 230.126 268.848C228.52 267.401 221.837 266.407 228.906 270.239C222.077 273.606 218.099 269.48 212.177 266.534C216.879 262.546 223.404 261.624 228.455 265.637C227.348 262.408 222.07 250.361 218.512 251.229C217.514 251.472 220.165 259.059 200.672 255.391C205.097 247.388 213.375 242.674 220.611 250.322C220.886 239.951 219.212 246.188 218.799 246.116C217.707 245.927 217.875 239.256 200.091 235.593C212.701 243.218 181.756 246.728 196.999 236.642C187.596 224.261 196.221 232.784 199.695 234.229C201.553 235.002 215.101 239.901 215.827 239.439C216.109 239.26 214.909 234.262 218.864 235.152C223.121 236.111 221.657 246.714 223.481 243.421C226.696 237.616 212.343 229.424 212.322 223.303C212.29 213.751 214.31 225.777 217.654 222.341C214.143 238.091 231.508 232.333 222.114 250.919C222.635 252.111 224.637 254.105 224.72 254.301Z" fill="#22C55E"/>
<path d="M253.796 260.725C252.979 263.248 249.873 265.864 248.006 267.737C244.498 276.282 259.194 300.845 265.162 307.999C263.671 308.665 263.264 308.233 263.176 308.281L258.02 301.205L262.325 309.417C261.749 309.945 261.617 309.894 261.587 309.927C259.703 306.598 257.713 304.197 256.206 300.55C255.294 298.343 257.013 298.434 256.718 297.738C256.307 296.767 252.98 291.791 250.941 286.997C249.432 283.448 246.098 272.094 244.941 270.405C242.002 266.11 228.781 262.045 237.521 258.072C235.514 255.179 235.895 248.918 235.489 244.464C235.319 242.601 236.071 237.083 235.155 235.687C233.732 233.519 232.553 235.614 231.157 234.633C229.087 233.179 226.804 223.086 229.465 222.702C231.037 222.475 231.109 229.859 235.99 218.731C240.032 230.726 240.919 222.699 243.416 223.962C248.21 226.389 233.417 230.548 236.734 248.243C238.073 255.391 242.922 258.942 245.212 249.471C250.695 253.342 248.719 258.159 249.969 258.734C250.913 259.168 256.417 252.64 253.796 260.725Z" fill="#22C55E"/>
<path d="M242.229 298.807C237.164 298.931 232.202 300.266 227.757 302.701L174.814 301.366L174.912 326.621L228.609 325.257C233.223 327.352 238.272 328.309 243.331 328.049C256.008 327.569 266.024 320.633 265.718 312.561C265.412 304.489 254.894 298.336 242.226 298.811L242.229 298.807Z" fill="#FFB6B6"/>
<path d="M260.091 272.722C264.746 274.727 268.854 277.817 272.074 281.735L319.097 306.793L312.222 323.649L262.896 302.351C257.835 302.573 252.794 301.578 248.195 299.449C236.609 294.274 229.892 284.101 233.178 276.724C236.464 269.346 248.513 267.561 260.093 272.727L260.091 272.722Z" fill="#FFB6B6"/>
<path d="M155.098 298.715L179.387 300.877L229.48 301.407L224.594 328.005L157.786 328.336L155.098 298.715Z" fill="#D6D6E3"/>
<path d="M326.695 313.035L321.737 303.173L278.057 282.043L269.134 306.362L309.418 328.212L326.695 313.035Z" fill="#D6D6E3"/>
<path d="M0.00380251 327.928C-0.05432 328.751 0.561726 329.467 1.38301 329.53H473.594C474.478 329.415 475.101 328.605 474.986 327.72C474.892 326.993 474.321 326.42 473.594 326.326H1.383C0.56172 326.389 -0.05432 327.105 0.00380251 327.928Z" fill="#CCCCCC"/>
</g>
</g>
<defs>
<clipPath id="clip0_199_32">
<rect width="478" height="330" fill="white"/>
</clipPath>
<clipPath id="clip1_199_32">
<rect width="475" height="240" fill="white" transform="translate(0 90)"/>
</clipPath>
</defs>
</svg>
