<svg width="457" height="335" viewBox="0 0 457 335" fill="none" xmlns="http://www.w3.org/2000/svg">
<g clip-path="url(#clip0_202_216)">
<path d="M91.0542 335C141.342 335 182.108 331.738 182.108 327.714C182.108 323.69 141.342 320.428 91.0542 320.428C40.7664 320.428 0 323.69 0 327.714C0 331.738 40.7664 335 91.0542 335Z" fill="#E6E6E6"/>
<path d="M69.6002 74.3306C85.4464 67.2295 105.183 71.7287 124.458 74.8513C124.637 71.0698 126.812 66.4675 124.534 63.8293C121.767 60.6241 122.022 57.2564 123.687 53.8693C127.944 45.2078 121.845 35.9916 115.686 28.3284C114.297 26.6051 112.543 25.251 110.565 24.3762C108.587 23.5015 106.44 23.1306 104.301 23.2938L92.8915 24.1525C90.1152 24.3614 87.4657 25.4587 85.2974 27.2975C83.1292 29.1363 81.5457 31.6289 80.7588 34.4418C78.0345 38.3455 76.5764 42.2383 77.4945 46.1109C73.4139 49.0489 72.7284 52.5954 74.562 56.5935C76.1168 59.1108 76.1003 61.5612 74.4913 63.9438C72.3781 66.9814 70.7597 70.3684 69.7022 73.9659L69.6002 74.3306Z" fill="#2F2E41"/>
<path d="M446.171 289.602H123.206C120.334 289.602 117.58 288.4 115.549 286.26C113.518 284.121 112.377 281.219 112.377 278.193C229.452 263.857 344.326 263.857 457 278.193C457 281.219 455.859 284.121 453.828 286.26C451.797 288.4 449.043 289.602 446.171 289.602Z" fill="#2F2E41"/>
<path d="M457 278.864L112.377 278.193L152.318 207.386L152.509 207.05V51.0008C152.509 49.1067 152.863 47.2311 153.551 45.4812C154.238 43.7312 155.247 42.1412 156.518 40.8019C157.789 39.4625 159.298 38.4001 160.959 37.6754C162.62 36.9506 164.4 36.5776 166.198 36.5778H401.268C403.066 36.5776 404.846 36.9506 406.507 37.6754C408.168 38.4001 409.677 39.4625 410.948 40.8019C412.219 42.1412 413.228 43.7312 413.916 45.4812C414.603 47.2311 414.957 49.1067 414.957 51.0008V208.124L457 278.864Z" fill="#3F3D56"/>
<path d="M165.886 46.6451C164.704 46.6465 163.57 47.1419 162.734 48.0227C161.898 48.9034 161.428 50.0976 161.427 51.3431V193.627C161.428 194.873 161.898 196.067 162.734 196.948C163.57 197.829 164.704 198.324 165.886 198.325H403.491C404.673 198.324 405.807 197.828 406.643 196.948C407.478 196.067 407.949 194.873 407.95 193.627V51.3431C407.949 50.0976 407.479 48.9035 406.643 48.0227C405.807 47.142 404.673 46.6465 403.491 46.6451H165.886Z" fill="white"/>
<path d="M166.882 217.118C166.516 217.118 166.159 217.229 165.851 217.437C165.544 217.644 165.299 217.94 165.145 218.29L152.838 246.478C152.704 246.785 152.646 247.122 152.668 247.459C152.69 247.796 152.792 248.121 152.965 248.406C153.138 248.69 153.376 248.924 153.657 249.086C153.939 249.248 154.254 249.333 154.574 249.333H413.383C413.709 249.333 414.029 249.245 414.313 249.078C414.598 248.911 414.837 248.67 415.008 248.378C415.18 248.086 415.277 247.753 415.292 247.41C415.306 247.067 415.237 246.726 415.092 246.419L401.714 218.231C401.557 217.896 401.313 217.614 401.011 217.417C400.709 217.22 400.361 217.117 400.006 217.118H166.882Z" fill="#2F2E41"/>
<path d="M283.733 44.296C285.316 44.296 286.6 42.9439 286.6 41.2759C286.6 39.6079 285.316 38.2557 283.733 38.2557C282.15 38.2557 280.866 39.6079 280.866 41.2759C280.866 42.9439 282.15 44.296 283.733 44.296Z" fill="white"/>
<path d="M258.294 254.702C257.874 254.703 257.466 254.849 257.132 255.118C256.799 255.387 256.559 255.765 256.449 256.192L253.362 268.273C253.286 268.571 253.276 268.884 253.333 269.187C253.39 269.49 253.512 269.776 253.69 270.021C253.869 270.266 254.098 270.465 254.361 270.602C254.624 270.739 254.914 270.81 255.207 270.81H313.916C314.221 270.81 314.521 270.733 314.792 270.586C315.063 270.439 315.296 270.226 315.473 269.964C315.65 269.703 315.764 269.4 315.808 269.083C315.851 268.765 315.821 268.441 315.722 268.138L311.753 256.057C311.623 255.661 311.379 255.318 311.055 255.076C310.732 254.833 310.344 254.702 309.947 254.702H258.294Z" fill="#2F2E41"/>
<path d="M414.957 204.701V207.386H152.318L152.515 207.051V204.701H414.957Z" fill="#2F2E41"/>
<path d="M407.632 93.9613C432.258 93.9613 452.222 72.9273 452.222 46.9806C452.222 21.034 432.258 0 407.632 0C383.005 0 363.041 21.034 363.041 46.9806C363.041 72.9273 383.005 93.9613 407.632 93.9613Z" fill="#22C55E"/>
<path d="M426.105 67.4508H389.158C388.483 67.4501 387.835 67.167 387.357 66.6637C386.88 66.1604 386.611 65.478 386.61 64.7662V41.2759C386.611 40.5641 386.88 39.8817 387.357 39.3784C387.835 38.8751 388.483 38.592 389.158 38.5912H426.105C426.781 38.592 427.428 38.8751 427.906 39.3784C428.384 39.8817 428.652 40.5641 428.653 41.2759V64.7662C428.652 65.478 428.384 66.1604 427.906 66.6637C427.428 67.167 426.781 67.4501 426.105 67.4508ZM389.158 41.2759V64.7662H426.107L426.105 41.2759L389.158 41.2759Z" fill="white"/>
<path d="M419.098 41.2759H396.165V30.5374C396.165 22.7595 400.988 17.1144 407.632 17.1144C414.275 17.1144 419.098 22.7595 419.098 30.5374L419.098 41.2759ZM398.713 38.5913H416.55V30.5374C416.55 24.2149 412.883 19.799 407.632 19.799C402.381 19.799 398.713 24.2149 398.713 30.5374L398.713 38.5913Z" fill="white"/>
<path d="M407.632 55.0345C409.039 55.0345 410.18 53.8325 410.18 52.3499C410.18 50.8672 409.039 49.6653 407.632 49.6653C406.224 49.6653 405.084 50.8672 405.084 52.3499C405.084 53.8325 406.224 55.0345 407.632 55.0345Z" fill="white"/>
<path d="M376.503 150.064H192.874C191.972 150.063 191.108 149.685 190.47 149.013C189.833 148.342 189.474 147.431 189.473 146.481V98.4892C189.474 97.5394 189.833 96.6287 190.47 95.957C191.108 95.2854 191.972 94.9075 192.874 94.9064H376.503C377.405 94.9075 378.269 95.2854 378.907 95.957C379.544 96.6287 379.903 97.5394 379.904 98.4892V146.481C379.903 147.431 379.544 148.342 378.907 149.013C378.269 149.685 377.405 150.063 376.503 150.064ZM192.874 96.3396C192.333 96.3402 191.814 96.5669 191.432 96.9699C191.049 97.3729 190.834 97.9193 190.833 98.4893V146.481C190.834 147.051 191.049 147.598 191.432 148.001C191.814 148.404 192.333 148.63 192.874 148.631H376.503C377.044 148.63 377.563 148.404 377.946 148.001C378.328 147.598 378.543 147.051 378.544 146.481V98.4892C378.543 97.9193 378.328 97.3729 377.946 96.9699C377.563 96.5668 377.044 96.3402 376.503 96.3396L192.874 96.3396Z" fill="#E6E6E6"/>
<path d="M221.406 135.238C229.056 135.238 235.258 128.704 235.258 120.644C235.258 112.584 229.056 106.049 221.406 106.049C213.756 106.049 207.554 112.584 207.554 120.644C207.554 128.704 213.756 135.238 221.406 135.238Z" fill="#E6E6E6"/>
<path d="M253.398 110.914C253.094 110.914 252.793 110.976 252.513 111.098C252.232 111.22 251.977 111.399 251.763 111.625C251.548 111.851 251.378 112.12 251.261 112.415C251.145 112.71 251.085 113.027 251.085 113.347C251.085 113.666 251.145 113.983 251.261 114.278C251.378 114.574 251.548 114.842 251.763 115.068C251.977 115.294 252.232 115.473 252.513 115.595C252.793 115.717 253.094 115.78 253.398 115.779H362.235C362.847 115.779 363.434 115.523 363.867 115.067C364.3 114.61 364.544 113.992 364.544 113.347C364.544 112.701 364.3 112.083 363.867 111.627C363.434 111.17 362.847 110.914 362.235 110.914H253.398Z" fill="#E6E6E6"/>
<path d="M253.398 125.509C252.785 125.509 252.198 125.765 251.765 126.221C251.332 126.677 251.089 127.296 251.089 127.941C251.089 128.586 251.332 129.205 251.765 129.661C252.198 130.117 252.785 130.373 253.398 130.373H300.231C300.843 130.373 301.43 130.117 301.863 129.661C302.296 129.205 302.539 128.586 302.539 127.941C302.539 127.296 302.296 126.677 301.863 126.221C301.43 125.765 300.843 125.509 300.231 125.509H253.398Z" fill="#E6E6E6"/>
<path d="M151.866 126.493L117.92 145.507L117.491 129.662C128.57 127.713 139.111 124.32 148.858 118.796L152.408 109.555C152.795 108.548 153.424 107.664 154.233 106.991C155.042 106.317 156.003 105.877 157.022 105.713C158.041 105.549 159.084 105.667 160.046 106.055C161.009 106.444 161.86 107.09 162.514 107.929C163.472 109.157 163.95 110.723 163.853 112.309C163.756 113.895 163.09 115.383 161.991 116.471L151.866 126.493Z" fill="#FFB8B8"/>
<path d="M68.9235 236.273C68.6759 235.317 68.6233 234.315 68.7692 233.335C68.9152 232.356 69.2563 231.419 69.7703 230.588L77.2271 218.531C78.9908 215.679 81.6971 213.619 84.8209 212.751C87.9446 211.883 91.2632 212.268 94.1326 213.832C90.9987 219.452 91.4356 224.383 95.2149 228.668C89.348 231.685 83.9255 235.58 79.1156 240.231C78.2375 240.862 77.2291 241.263 76.1743 241.399C75.1196 241.536 74.049 241.406 73.0519 241.019C72.0547 240.631 71.1598 239.999 70.4417 239.173C69.7236 238.348 69.2031 237.354 68.9235 236.273Z" fill="#2F2E41"/>
<path d="M153.412 220.508C152.283 222.49 150.691 224.132 148.786 225.279C146.882 226.425 144.73 227.036 142.537 227.053L92.9984 227.449L90.85 214.32L112.764 207.529L94.2875 192.589L114.483 167.69L151.164 203.71C153.308 205.816 154.701 208.633 155.11 211.69C155.519 214.748 154.92 217.861 153.412 220.508Z" fill="#2F2E41"/>
<path d="M85.264 310.296H73.6624C63.2458 235.068 52.6428 159.629 83.9749 131.472L120.928 137.811L116.202 170.859L95.5765 195.758L85.264 310.296Z" fill="#2F2E41"/>
<path d="M95.4624 327.337C94.5542 327.598 93.6038 327.654 92.6738 327.5C91.7438 327.346 90.8552 326.987 90.0664 326.446L77.4695 324.662C74.7627 322.804 72.8074 319.952 71.9831 316.661C71.1588 313.37 71.5242 309.874 73.0084 306.85C78.3431 310.152 83.0227 309.691 87.0893 305.709C89.9627 311.822 94.6969 311.449 99.2183 316.599C99.817 317.524 100.197 318.587 100.327 319.698C100.457 320.809 100.333 321.937 99.9659 322.988C99.5984 324.038 98.998 324.981 98.2146 325.738C97.4313 326.494 96.4877 327.043 95.4624 327.337Z" fill="#2F2E41"/>
<path d="M112.764 81.2208L91.2797 75.7882C94.8479 68.0928 95.1417 59.5302 93.4281 50.4359L108.037 49.9832C108.495 61.2922 109.88 71.8576 112.764 81.2208Z" fill="#FFB8B8"/>
<path d="M118.669 151.442C103.029 162.67 91.9782 151.826 83.5453 135.094C84.7171 124.856 82.8197 112.604 79.3057 99.2911C77.7428 93.4192 78.3263 87.1433 80.9409 81.7025C83.5554 76.2617 88.011 72.0514 93.4281 69.9028L111.905 78.0518C127.593 91.5253 130.681 106.12 124.795 121.513L118.669 151.442Z" fill="#22C55E"/>
<path d="M73.6624 92.5387L56.4748 102.046L86.9827 121.06L91.2277 132.092C91.511 132.828 91.649 133.618 91.6334 134.412C91.6177 135.207 91.4486 135.989 91.1364 136.713C90.8242 137.436 90.3755 138.085 89.8176 138.619C89.2597 139.154 88.6043 139.563 87.8914 139.822C87.081 140.116 86.2169 140.209 85.3668 140.093C84.5166 139.977 83.7036 139.655 82.9912 139.152C82.2789 138.65 81.6867 137.981 81.2609 137.197C80.8351 136.413 80.5873 135.536 80.537 134.634L80.1077 126.945L41.3326 113.464C40.0261 113.009 38.8349 112.248 37.8492 111.237C36.8635 110.226 36.109 108.992 35.643 107.628C34.9638 105.64 34.9292 103.471 35.5447 101.46C36.1602 99.4492 37.3911 97.7101 39.0447 96.5148L70.2249 73.9773L73.6624 92.5387Z" fill="#FFB8B8"/>
<path d="M90.85 94.3496C83.6817 91.0398 77.1634 94.6352 68.9359 97.5186L67.6469 73.5246C75.8164 68.9369 83.6056 67.7 90.85 71.261L90.85 94.3496Z" fill="#22C55E"/>
<path d="M99.4249 61.8683C107.001 61.8683 113.142 55.3979 113.142 47.4162C113.142 39.4345 107.001 32.964 99.4249 32.964C91.8492 32.964 85.7079 39.4345 85.7079 47.4162C85.7079 55.3979 91.8492 61.8683 99.4249 61.8683Z" fill="#FFB8B8"/>
<path d="M115.835 45.5927C102.254 46.9941 91.9052 44.6539 85.2913 37.9907V32.6247H114.682L115.835 45.5927Z" fill="#2F2E41"/>
</g>
<defs>
<clipPath id="clip0_202_216">
<rect width="457" height="335" fill="white"/>
</clipPath>
</defs>
</svg>
