<svg width="63" height="63" viewBox="0 0 63 63" fill="none" xmlns="http://www.w3.org/2000/svg">
<path d="M7.21875 5.25C7.21875 4.72786 7.01133 4.2271 6.64212 3.85788C6.2729 3.48867 5.77215 3.28125 5.25 3.28125C4.72786 3.28125 4.2271 3.48867 3.85788 3.85788C3.48867 4.2271 3.28125 4.72786 3.28125 5.25V31.6496C3.28125 37.7108 3.28125 42.4594 3.78 46.1659C4.28925 49.9564 5.355 52.9489 7.70175 55.2982C10.0511 57.6476 13.0436 58.7107 16.8368 59.22C20.5406 59.7188 25.2892 59.7188 31.3504 59.7188H57.75C58.2721 59.7188 58.7729 59.5113 59.1421 59.1421C59.5113 58.7729 59.7188 58.2721 59.7188 57.75C59.7188 57.2279 59.5113 56.7271 59.1421 56.3579C58.7729 55.9887 58.2721 55.7812 57.75 55.7812H31.5C25.2577 55.7812 20.7743 55.776 17.3617 55.3192C14.0044 54.8677 11.9805 54.0067 10.4843 52.5131C8.99062 51.0169 8.13225 48.9956 7.68075 45.6382C7.224 42.2257 7.21875 37.7422 7.21875 31.5V5.25Z" fill="black"/>
<path d="M51.4185 19.5982C51.5848 19.3963 51.7091 19.1633 51.7843 18.9128C51.8595 18.6622 51.884 18.3992 51.8565 18.1391C51.8289 17.879 51.7497 17.627 51.6236 17.3978C51.4976 17.1687 51.3271 16.9669 51.1221 16.8044C50.9172 16.6418 50.682 16.5217 50.4301 16.4511C50.1782 16.3805 49.9148 16.3608 49.6553 16.3932C49.3957 16.4255 49.1452 16.5092 48.9184 16.6395C48.6915 16.7697 48.4929 16.9439 48.3342 17.1517L40.1494 27.4575C39.5063 28.2686 39.0837 28.7962 38.7345 29.1795C38.3933 29.5549 38.2358 29.6599 38.1623 29.6992C37.8894 29.8447 37.586 29.9239 37.2768 29.9302C36.9676 29.9366 36.6612 29.8701 36.3825 29.736C36.309 29.7019 36.1463 29.6047 35.7867 29.2451C35.4244 28.8776 34.9782 28.3657 34.3009 27.5835L34.2563 27.5362C33.6342 26.817 33.1013 26.2027 32.6288 25.7302C32.1473 25.2125 31.5787 24.7834 30.9488 24.4624C30.1119 24.0604 29.1922 23.8614 28.264 23.8815C27.3359 23.9016 26.4256 24.1401 25.6069 24.5779C24.9901 24.9252 24.4392 25.3784 23.9794 25.9166C23.5332 26.4101 23.0265 27.0454 22.4333 27.7935L14.2092 38.1517C14.037 38.3528 13.9071 38.5865 13.8274 38.8389C13.7476 39.0913 13.7195 39.3571 13.7449 39.6206C13.7702 39.8841 13.8484 40.1398 13.9748 40.3723C14.1012 40.6049 14.2732 40.8096 14.4805 40.9742C14.6878 41.1387 14.9262 41.2598 15.1813 41.3302C15.4365 41.4005 15.7033 41.4187 15.9656 41.3836C16.228 41.3485 16.4805 41.2609 16.7083 41.1259C16.936 40.991 17.1341 40.8115 17.2909 40.5982L25.4783 30.2925C26.1214 29.4814 26.544 28.9537 26.8905 28.5705C27.2318 28.1951 27.3893 28.0901 27.4628 28.0507C27.7357 27.9052 28.0391 27.8261 28.3483 27.8197C28.6575 27.8133 28.9638 27.8799 29.2425 28.014C29.3187 28.0481 29.4814 28.1452 29.8384 28.5049C30.2033 28.8724 30.6469 29.3842 31.3268 30.1665L31.3688 30.2137C31.9935 30.933 32.5238 31.5472 32.9963 32.0197C33.4819 32.5106 34.0174 32.97 34.6763 33.2876C35.5131 33.6895 36.4329 33.8885 37.361 33.8685C38.2892 33.8484 39.1995 33.6098 40.0182 33.1721C40.632 32.8204 41.1822 32.3678 41.6457 31.8334C42.0919 31.3399 42.5985 30.7046 43.1944 29.9565L51.4185 19.5982Z" fill="black"/>
</svg>
