<svg width="110" height="110" viewBox="0 0 110 110" fill="none" xmlns="http://www.w3.org/2000/svg">
<path fill-rule="evenodd" clip-rule="evenodd" d="M55.0895 13.75C44.738 13.75 35.3078 17.1692 29.7276 19.9627C29.2234 20.2148 28.7529 20.4608 28.3159 20.7006C27.4497 21.1727 26.7118 21.6127 26.1251 22L32.473 31.3454L35.4613 32.5348C47.1397 38.4267 62.8009 38.4267 74.4816 32.5348L77.8732 30.7748L83.8751 22C82.6305 21.1913 81.3379 20.4589 80.0045 19.8069C74.4518 17.0431 65.2461 13.75 55.0918 13.75M40.3288 24.3283C38.0815 23.9054 35.8615 23.3483 33.6807 22.66C38.908 20.3385 46.6974 17.875 55.0918 17.875C60.9057 17.875 66.4034 19.0575 70.9501 20.5563C65.622 21.3056 59.9363 22.5775 54.5188 24.1427C50.2563 25.3756 45.2743 25.2427 40.3288 24.3283ZM76.9038 35.9333L76.3401 36.2175C63.493 42.6983 46.4522 42.6983 33.6051 36.2175L33.0711 35.9471C13.7684 57.1244 -0.966993 96.2431 55.0895 96.2431C111.146 96.2431 96.053 56.3979 76.9038 35.9333ZM52.7084 55C51.4929 55 50.3271 55.4829 49.4675 56.3424C48.608 57.202 48.1251 58.3678 48.1251 59.5833C48.1251 60.7989 48.608 61.9647 49.4675 62.8242C50.3271 63.6838 51.4929 64.1667 52.7084 64.1667V55ZM57.2918 50.4167V48.125H52.7084V50.4167C50.2773 50.4167 47.9457 51.3824 46.2266 53.1015C44.5075 54.8206 43.5418 57.1522 43.5418 59.5833C43.5418 62.0145 44.5075 64.3461 46.2266 66.0651C47.9457 67.7842 50.2773 68.75 52.7084 68.75V77.9167C50.7147 77.9167 49.0166 76.6448 48.3841 74.8619C48.2902 74.5702 48.1388 74.3003 47.9388 74.0681C47.7389 73.8359 47.4944 73.6462 47.2198 73.5102C46.9452 73.3742 46.6462 73.2946 46.3403 73.2762C46.0344 73.2578 45.728 73.3009 45.4391 73.4029C45.1502 73.505 44.8846 73.664 44.6582 73.8705C44.4318 74.077 44.2491 74.3267 44.121 74.6051C43.9928 74.8834 43.9217 75.1846 43.912 75.4908C43.9022 75.7971 43.954 76.1022 44.0643 76.3881C44.6961 78.1757 45.8667 79.7235 47.4148 80.8181C48.963 81.9127 50.8124 82.5003 52.7084 82.5V84.7917H57.2918V82.5C59.7229 82.5 62.0545 81.5342 63.7736 79.8151C65.4927 78.0961 66.4584 75.7645 66.4584 73.3333C66.4584 70.9022 65.4927 68.5706 63.7736 66.8515C62.0545 65.1324 59.7229 64.1667 57.2918 64.1667V55C59.2855 55 60.9836 56.2719 61.6161 58.0548C61.71 58.3465 61.8614 58.6164 62.0613 58.8486C62.2613 59.0807 62.5058 59.2704 62.7804 59.4065C63.055 59.5425 63.354 59.6221 63.6599 59.6405C63.9658 59.6589 64.2722 59.6158 64.5611 59.5137C64.85 59.4116 65.1155 59.2527 65.3419 59.0462C65.5683 58.8397 65.751 58.5899 65.8792 58.3116C66.0074 58.0333 66.0785 57.7321 66.0882 57.4258C66.0979 57.1195 66.0462 56.8144 65.9359 56.5285C65.3041 54.7409 64.1335 53.1932 62.5853 52.0986C61.0372 51.004 59.1878 50.4164 57.2918 50.4167ZM57.2918 68.75V77.9167C58.5073 77.9167 59.6731 77.4338 60.5327 76.5742C61.3922 75.7147 61.8751 74.5489 61.8751 73.3333C61.8751 72.1178 61.3922 70.952 60.5327 70.0924C59.6731 69.2329 58.5073 68.75 57.2918 68.75Z" fill="white"/>
</svg>
