<svg width="63" height="63" viewBox="0 0 63 63" fill="none" xmlns="http://www.w3.org/2000/svg">
<path d="M31.5005 2.25013C31.5005 1.65336 31.7375 1.08103 32.1595 0.659046C32.5814 0.237066 33.1537 0 33.7505 0C37.5916 0 41.3951 0.756616 44.9438 2.22665C48.4925 3.69668 51.7169 5.85134 54.433 8.56761C57.1491 11.2839 59.3036 14.5085 60.7735 18.0575C62.2434 21.6065 63 25.4103 63 29.2516C63 29.8484 62.763 30.4207 62.341 30.8427C61.919 31.2647 61.3468 31.5018 60.75 31.5018H33.7505C33.1537 31.5018 32.5814 31.2647 32.1595 30.8427C31.7375 30.4207 31.5005 29.8484 31.5005 29.2516V2.25013ZM27.0006 11.3496C27.0006 11.0371 26.9355 10.7279 26.8094 10.4419C26.6833 10.1559 26.4991 9.89926 26.2683 9.68841C26.0376 9.47756 25.7655 9.3171 25.4693 9.21726C25.1731 9.11741 24.8594 9.08038 24.5481 9.10851C19.4382 9.57443 14.5668 11.4869 10.5046 14.6219C6.4424 17.7569 3.35757 21.9846 1.61144 26.8098C-0.134686 31.635 -0.469799 36.8579 0.645355 41.8668C1.76051 46.8756 4.27976 51.4629 7.908 55.0914C11.5362 58.7199 16.1232 61.2394 21.1317 62.3546C26.1402 63.4698 31.3627 63.1347 36.1876 61.3884C41.0125 59.6422 45.2399 56.5571 48.3746 52.4946C51.5094 48.4321 53.4217 43.5604 53.8876 38.4501C53.9151 38.1396 53.8777 37.8267 53.7778 37.5313C53.6779 37.236 53.5178 36.9646 53.3075 36.7344C53.0972 36.5042 52.8414 36.3203 52.5563 36.1942C52.2712 36.0681 51.9629 36.0027 51.6512 36.002H27.0006V11.3496Z" fill="black"/>
</svg>
